<svg width="18" height="21" viewBox="0 0 18 21" fill="none" xmlns="http://www.w3.org/2000/svg">
<g id="fa6-solid:lock" clip-path="url(#clip0_216_2)">
<path id="Vector" d="M5.78571 5.78571V7.71429H12.2143V5.78571C12.2143 4.00982 10.7759 2.57143 9 2.57143C7.22411 2.57143 5.78571 4.00982 5.78571 5.78571ZM3.21429 7.71429V5.78571C3.21429 2.59152 5.8058 0 9 0C12.1942 0 14.7857 2.59152 14.7857 5.78571V7.71429H15.4286C16.8469 7.71429 18 8.86741 18 10.2857V18C18 19.4183 16.8469 20.5714 15.4286 20.5714H2.57143C1.15313 20.5714 0 19.4183 0 18V10.2857C0 8.86741 1.15313 7.71429 2.57143 7.71429H3.21429Z" fill="#626262"/>
</g>
<defs>
<clipPath id="clip0_216_2">
<rect width="18" height="20.5714" fill="white"/>
</clipPath>
</defs>
</svg>
