<svg width="25" height="25" viewBox="0 0 25 25" fill="none" xmlns="http://www.w3.org/2000/svg">
<g id="iconamoon:delivery-fast-fill">
<path id="Vector" fill-rule="evenodd" clip-rule="evenodd" d="M1.04166 3.12516C1.04166 2.8489 1.1514 2.58394 1.34675 2.38859C1.5421 2.19324 1.80706 2.0835 2.08332 2.0835H13.5417C13.8179 2.0835 14.0829 2.19324 14.2782 2.38859C14.4736 2.58394 14.5833 2.8489 14.5833 3.12516V8.3335H18.75C19.434 8.3335 20.1112 8.46821 20.7431 8.72996C21.375 8.9917 21.9492 9.37534 22.4328 9.85898C22.9165 10.3426 23.3001 10.9168 23.5619 11.5487C23.8236 12.1806 23.9583 12.8579 23.9583 13.5418V17.7085C23.9584 18.3791 23.7429 19.0319 23.3436 19.5706C22.9442 20.1093 22.3823 20.5053 21.7406 20.7002C21.5496 21.3304 21.1643 21.8841 20.6399 22.2824C20.1154 22.6806 19.4785 22.903 18.8202 22.9178C18.1618 22.9326 17.5156 22.739 16.9738 22.3647C16.432 21.9904 16.0223 21.4545 15.8031 20.8335H9.19791C8.97876 21.4545 8.56905 21.9904 8.02724 22.3647C7.48542 22.739 6.83922 22.9326 6.18085 22.9178C5.52249 22.903 4.88562 22.6806 4.36116 22.2824C3.8367 21.8841 3.45145 21.3304 3.26041 20.7002C2.61857 20.5055 2.05637 20.1096 1.65683 19.5709C1.25729 19.0321 1.04162 18.3792 1.04166 17.7085V13.5418H7.29166C7.56792 13.5418 7.83288 13.4321 8.02823 13.2367C8.22358 13.0414 8.33332 12.7764 8.33332 12.5002C8.33332 12.2239 8.22358 11.9589 8.02823 11.7636C7.83288 11.5682 7.56792 11.4585 7.29166 11.4585H1.04166V9.37516H5.20832C5.48459 9.37516 5.74954 9.26542 5.94489 9.07007C6.14024 8.87471 6.24999 8.60976 6.24999 8.3335C6.24999 8.05723 6.14024 7.79228 5.94489 7.59693C5.74954 7.40158 5.48459 7.29183 5.20832 7.29183H1.04166V3.12516ZM14.5833 18.7502H15.8031C16.009 18.1673 16.3832 17.6586 16.8783 17.2884C17.3734 16.9182 17.9671 16.7032 18.5845 16.6705C19.2018 16.6379 19.8149 16.789 20.3463 17.1049C20.8777 17.4207 21.3035 17.8871 21.5698 18.445C21.6667 18.3484 21.7435 18.2336 21.7959 18.1072C21.8482 17.9808 21.8751 17.8453 21.875 17.7085V13.5418C21.875 12.713 21.5457 11.9182 20.9597 11.3321C20.3736 10.7461 19.5788 10.4168 18.75 10.4168H14.5833V18.7502ZM7.29166 19.7918C7.29166 19.5156 7.18191 19.2506 6.98656 19.0553C6.79121 18.8599 6.52626 18.7502 6.24999 18.7502C5.97372 18.7502 5.70877 18.8599 5.51342 19.0553C5.31807 19.2506 5.20832 19.5156 5.20832 19.7918C5.20832 20.0681 5.31807 20.333 5.51342 20.5284C5.70877 20.7237 5.97372 20.8335 6.24999 20.8335C6.52626 20.8335 6.79121 20.7237 6.98656 20.5284C7.18191 20.333 7.29166 20.0681 7.29166 19.7918ZM18.0135 19.0554C17.9165 19.1519 17.8396 19.2666 17.7872 19.393C17.7348 19.5195 17.708 19.655 17.7083 19.7918C17.7083 20.0328 17.7918 20.2664 17.9446 20.4527C18.0975 20.639 18.3102 20.7666 18.5466 20.8137C18.7829 20.8607 19.0283 20.8244 19.2409 20.7108C19.4534 20.5972 19.62 20.4135 19.7123 20.1909C19.8046 19.9682 19.8168 19.7205 19.7469 19.4898C19.6769 19.2592 19.5292 19.06 19.3289 18.926C19.1285 18.7921 18.8879 18.7318 18.6481 18.7554C18.4082 18.779 18.184 18.885 18.0135 19.0554Z" fill="#626262"/>
</g>
</svg>
