<svg width="25" height="20" viewBox="0 0 25 20" fill="none" xmlns="http://www.w3.org/2000/svg">
<g id="fa-solid:money-check-alt">
<path id="Vector" d="M23.75 1.25H1.25C0.559766 1.25 0 1.80977 0 2.5V17.5C0 18.1902 0.559766 18.75 1.25 18.75H23.75C24.4402 18.75 25 18.1902 25 17.5V2.5C25 1.80977 24.4402 1.25 23.75 1.25ZM6.875 12.8078V13.4375C6.875 13.6102 6.73516 13.75 6.5625 13.75H5.9375C5.76484 13.75 5.625 13.6102 5.625 13.4375V12.8012C5.18398 12.7785 4.75508 12.6246 4.39961 12.3578C4.24727 12.2434 4.23945 12.0152 4.37734 11.8836L4.83633 11.4457C4.94453 11.3426 5.10547 11.3379 5.23203 11.4172C5.3832 11.5117 5.55469 11.5625 5.73281 11.5625H6.83086C7.08477 11.5625 7.2918 11.3312 7.2918 11.0473C7.2918 10.8148 7.15078 10.6102 6.94922 10.55L5.19141 10.0227C4.46523 9.80469 3.95781 9.10781 3.95781 8.32773C3.95781 7.36992 4.70195 6.5918 5.62461 6.56719V5.9375C5.62461 5.76484 5.76445 5.625 5.93711 5.625H6.56211C6.73477 5.625 6.87461 5.76484 6.87461 5.9375V6.57383C7.31563 6.59648 7.74453 6.75 8.1 7.01719C8.25234 7.13164 8.26016 7.35977 8.12227 7.49141L7.66328 7.9293C7.55508 8.03242 7.39414 8.03711 7.26758 7.95781C7.11641 7.86289 6.94492 7.8125 6.7668 7.8125H5.66875C5.41484 7.8125 5.20781 8.04375 5.20781 8.32773C5.20781 8.56016 5.34883 8.76484 5.55039 8.825L7.3082 9.35234C8.03437 9.57031 8.5418 10.2672 8.5418 11.0473C8.5418 12.0055 7.79766 12.7832 6.875 12.8078ZM16.25 12.1875C16.25 12.3602 16.1102 12.5 15.9375 12.5H11.5625C11.3898 12.5 11.25 12.3602 11.25 12.1875V11.5625C11.25 11.3898 11.3898 11.25 11.5625 11.25H15.9375C16.1102 11.25 16.25 11.3898 16.25 11.5625V12.1875ZM22.5 12.1875C22.5 12.3602 22.3602 12.5 22.1875 12.5H19.0625C18.8898 12.5 18.75 12.3602 18.75 12.1875V11.5625C18.75 11.3898 18.8898 11.25 19.0625 11.25H22.1875C22.3602 11.25 22.5 11.3898 22.5 11.5625V12.1875ZM22.5 8.4375C22.5 8.61016 22.3602 8.75 22.1875 8.75H11.5625C11.3898 8.75 11.25 8.61016 11.25 8.4375V7.8125C11.25 7.63984 11.3898 7.5 11.5625 7.5H22.1875C22.3602 7.5 22.5 7.63984 22.5 7.8125V8.4375Z" fill="#626262"/>
</g>
</svg>
