<svg width="20" height="20" viewBox="0 0 20 20" fill="none" xmlns="http://www.w3.org/2000/svg">
<g id="fa-solid:flag" clip-path="url(#clip0_216_6)">
<path id="Vector" d="M13.6549 3.8587C11.5616 3.8587 9.83285 2.49999 7.20109 2.49999C6.22629 2.49999 5.35309 2.67124 4.54309 2.96924C4.65534 2.67607 4.70312 2.36215 4.68316 2.04885C4.61395 0.938072 3.70336 0.0470956 2.59133 0.00186124C1.3416 -0.0489981 0.3125 0.949049 0.3125 2.18749C0.3125 2.93069 0.683477 3.5869 1.25 3.98221V19.0625C1.25 19.5803 1.66973 20 2.1875 20H2.8125C3.33027 20 3.75 19.5803 3.75 19.0625V15.375C4.8559 14.9037 6.23367 14.5108 8.22012 14.5108C10.3134 14.5108 12.0421 15.8696 14.6739 15.8696C16.5555 15.8696 18.0593 15.2331 19.4593 14.2735C19.7984 14.0411 20 13.6551 20 13.2439V3.74784C20 2.83405 19.052 2.22948 18.2232 2.6144C16.8819 3.23737 15.2368 3.8587 13.6549 3.8587Z" fill="#626262"/>
</g>
<defs>
<clipPath id="clip0_216_6">
<rect width="20" height="20" fill="white"/>
</clipPath>
</defs>
</svg>
