<svg width="25" height="17" viewBox="0 0 25 17" fill="none" xmlns="http://www.w3.org/2000/svg">
<g id="fa:money" clip-path="url(#clip0_216_8)">
<path id="Vector" d="M10 11.6667H15V10.4167H13.3333V4.58333H11.849L9.92187 6.36719L10.9245 7.40885C11.2891 7.08767 11.5278 6.84028 11.6406 6.66667H11.6667V10.4167H10V11.6667ZM16.6667 8.33333C16.6667 8.94097 16.5755 9.55729 16.3932 10.1823C16.2109 10.8073 15.9527 11.3889 15.6185 11.9271C15.2843 12.4653 14.8437 12.9036 14.2969 13.2422C13.75 13.5807 13.151 13.75 12.5 13.75C11.849 13.75 11.25 13.5807 10.7031 13.2422C10.1562 12.9036 9.71571 12.4653 9.38151 11.9271C9.04731 11.3889 8.78906 10.8073 8.60677 10.1823C8.42448 9.55729 8.33333 8.94097 8.33333 8.33333C8.33333 7.72569 8.42448 7.10937 8.60677 6.48437C8.78906 5.85937 9.04731 5.27778 9.38151 4.73958C9.71571 4.20139 10.1562 3.76302 10.7031 3.42448C11.25 3.08594 11.849 2.91667 12.5 2.91667C13.151 2.91667 13.75 3.08594 14.2969 3.42448C14.8437 3.76302 15.2843 4.20139 15.6185 4.73958C15.9527 5.27778 16.2109 5.85937 16.3932 6.48437C16.5755 7.10937 16.6667 7.72569 16.6667 8.33333ZM23.3333 11.6667V5C22.4132 5 21.6276 4.67448 20.9766 4.02344C20.3255 3.3724 20 2.58681 20 1.66667H5C5 2.58681 4.67448 3.3724 4.02344 4.02344C3.3724 4.67448 2.58681 5 1.66667 5V11.6667C2.58681 11.6667 3.3724 11.9922 4.02344 12.6432C4.67448 13.2943 5 14.0799 5 15H20C20 14.0799 20.3255 13.2943 20.9766 12.6432C21.6276 11.9922 22.4132 11.6667 23.3333 11.6667ZM25 0.833333V15.8333C25 16.059 24.9175 16.2543 24.7526 16.4193C24.5877 16.5842 24.3924 16.6667 24.1667 16.6667H0.833333C0.607639 16.6667 0.412326 16.5842 0.247396 16.4193C0.0824653 16.2543 0 16.059 0 15.8333V0.833333C0 0.607639 0.0824653 0.412326 0.247396 0.247396C0.412326 0.0824653 0.607639 0 0.833333 0H24.1667C24.3924 0 24.5877 0.0824653 24.7526 0.247396C24.9175 0.412326 25 0.607639 25 0.833333Z" fill="#626262"/>
</g>
<defs>
<clipPath id="clip0_216_8">
<rect width="25" height="16.6667" fill="white"/>
</clipPath>
</defs>
</svg>
