<svg width="15" height="18" viewBox="0 0 15 18" fill="none" xmlns="http://www.w3.org/2000/svg">
<g id="fa6-solid:lock" clip-path="url(#clip0_216_2)">
<path id="Vector" d="M4.82143 4.82143V6.42857H10.1786V4.82143C10.1786 3.34152 8.97991 2.14286 7.5 2.14286C6.02009 2.14286 4.82143 3.34152 4.82143 4.82143ZM2.67857 6.42857V4.82143C2.67857 2.1596 4.83817 0 7.5 0C10.1618 0 12.3214 2.1596 12.3214 4.82143V6.42857H12.8571C14.0391 6.42857 15 7.38951 15 8.57143V15C15 16.1819 14.0391 17.1429 12.8571 17.1429H2.14286C0.960937 17.1429 0 16.1819 0 15V8.57143C0 7.38951 0.960937 6.42857 2.14286 6.42857H2.67857Z" fill="white"/>
</g>
<defs>
<clipPath id="clip0_216_2">
<rect width="15" height="17.1429" fill="white"/>
</clipPath>
</defs>
</svg>
