<svg xmlns="http://www.w3.org/2000/svg" width="360" height="57" viewBox="0 0 360 57" fill="none"><g clip-path="url(#clip0_378_3616)"><rect width="360" height="60" fill="white"></rect><mask id="path-2-outside-1_378_3616" maskUnits="userSpaceOnUse" x="7.6" y="9.52002" width="173" height="43" fill="black"><rect fill="white" x="7.6" y="9.52002" width="173" height="43"></rect><path d="M9.6 11.52H180.48V49.92H9.6V11.52Z"></path></mask><path d="M9.6 11.52V10.56C9.06981 10.56 8.64 10.9898 8.64 11.52H9.6ZM9.6 49.92H8.64C8.64 50.4502 9.06981 50.88 9.6 50.88V49.92ZM8.64 11.52V13.92H10.56V11.52H8.64ZM8.64 16.8V21.6H10.56V16.8H8.64ZM8.64 24.48V29.28H10.56V24.48H8.64ZM8.64 32.16V36.96H10.56V32.16H8.64ZM8.64 39.84V44.64H10.56V39.84H8.64ZM8.64 47.52V49.92H10.56V47.52H8.64ZM9.6 50.88H12.0273V48.96H9.6V50.88ZM14.94 50.88H19.7945V48.96H14.94V50.88ZM22.7073 50.88H27.5618V48.96H22.7073V50.88ZM30.4745 50.88H35.3291V48.96H30.4745V50.88ZM38.2418 50.88H43.0964V48.96H38.2418V50.88ZM46.0091 50.88H50.8636V48.96H46.0091V50.88ZM53.7764 50.88H58.6309V48.96H53.7764V50.88ZM61.5436 50.88H66.3982V48.96H61.5436V50.88ZM69.3109 50.88H74.1655V48.96H69.3109V50.88ZM77.0782 50.88H81.9327V48.96H77.0782V50.88ZM84.8455 50.88H89.7V48.96H84.8455V50.88ZM92.6127 50.88H97.4673V48.96H92.6127V50.88ZM100.38 50.88H105.235V48.96H100.38V50.88ZM108.147 50.88H113.002V48.96H108.147V50.88ZM115.915 50.88H120.769V48.96H115.915V50.88ZM123.682 50.88H128.536V48.96H123.682V50.88ZM131.449 50.88H136.304V48.96H131.449V50.88ZM139.216 50.88H144.071V48.96H139.216V50.88ZM146.984 50.88H151.838V48.96H146.984V50.88ZM154.751 50.88H159.605V48.96H154.751V50.88ZM162.518 50.88H167.373V48.96H162.518V50.88ZM170.285 50.88H175.14V48.96H170.285V50.88ZM178.053 50.88H180.48V48.96H178.053V50.88ZM180.48 10.56H178.053V12.48H180.48V10.56ZM175.14 10.56H170.285V12.48H175.14V10.56ZM167.373 10.56H162.518V12.48H167.373V10.56ZM159.605 10.56H154.751V12.48H159.605V10.56ZM151.838 10.56H146.984V12.48H151.838V10.56ZM144.071 10.56H139.216V12.48H144.071V10.56ZM136.304 10.56H131.449V12.48H136.304V10.56ZM128.536 10.56H123.682V12.48H128.536V10.56ZM120.769 10.56H115.915V12.48H120.769V10.56ZM113.002 10.56H108.147V12.48H113.002V10.56ZM105.235 10.56H100.38V12.48H105.235V10.56ZM97.4673 10.56H92.6127V12.48H97.4673V10.56ZM89.7 10.56H84.8455V12.48H89.7V10.56ZM81.9327 10.56H77.0782V12.48H81.9327V10.56ZM74.1655 10.56H69.3109V12.48H74.1655V10.56ZM66.3982 10.56H61.5436V12.48H66.3982V10.56ZM58.6309 10.56H53.7764V12.48H58.6309V10.56ZM50.8636 10.56H46.0091V12.48H50.8636V10.56ZM43.0964 10.56H38.2418V12.48H43.0964V10.56ZM35.3291 10.56H30.4745V12.48H35.3291V10.56ZM27.5618 10.56H22.7073V12.48H27.5618V10.56ZM19.7945 10.56H14.94V12.48H19.7945V10.56ZM12.0273 10.56H9.6V12.48H12.0273V10.56ZM9.6 11.52V9.60002C8.53961 9.60002 7.68 10.4596 7.68 11.52H9.6ZM9.6 49.92H7.68C7.68 50.9804 8.53961 51.84 9.6 51.84V49.92ZM7.68 11.52V13.92H11.52V11.52H7.68ZM7.68 16.8V21.6H11.52V16.8H7.68ZM7.68 24.48V29.28H11.52V24.48H7.68ZM7.68 32.16V36.96H11.52V32.16H7.68ZM7.68 39.84V44.64H11.52V39.84H7.68ZM7.68 47.52V49.92H11.52V47.52H7.68ZM9.6 51.84H12.0273V48H9.6V51.84ZM14.94 51.84H19.7945V48H14.94V51.84ZM22.7073 51.84H27.5618V48H22.7073V51.84ZM30.4745 51.84H35.3291V48H30.4745V51.84ZM38.2418 51.84H43.0964V48H38.2418V51.84ZM46.0091 51.84H50.8636V48H46.0091V51.84ZM53.7764 51.84H58.6309V48H53.7764V51.84ZM61.5436 51.84H66.3982V48H61.5436V51.84ZM69.3109 51.84H74.1655V48H69.3109V51.84ZM77.0782 51.84H81.9327V48H77.0782V51.84ZM84.8455 51.84H89.7V48H84.8455V51.84ZM92.6127 51.84H97.4673V48H92.6127V51.84ZM100.38 51.84H105.235V48H100.38V51.84ZM108.147 51.84H113.002V48H108.147V51.84ZM115.915 51.84H120.769V48H115.915V51.84ZM123.682 51.84H128.536V48H123.682V51.84ZM131.449 51.84H136.304V48H131.449V51.84ZM139.216 51.84H144.071V48H139.216V51.84ZM146.984 51.84H151.838V48H146.984V51.84ZM154.751 51.84H159.605V48H154.751V51.84ZM162.518 51.84H167.373V48H162.518V51.84ZM170.285 51.84H175.14V48H170.285V51.84ZM178.053 51.84H180.48V48H178.053V51.84ZM180.48 9.60002H178.053V13.44H180.48V9.60002ZM175.14 9.60002H170.285V13.44H175.14V9.60002ZM167.373 9.60002H162.518V13.44H167.373V9.60002ZM159.605 9.60002H154.751V13.44H159.605V9.60002ZM151.838 9.60002H146.984V13.44H151.838V9.60002ZM144.071 9.60002H139.216V13.44H144.071V9.60002ZM136.304 9.60002H131.449V13.44H136.304V9.60002ZM128.536 9.60002H123.682V13.44H128.536V9.60002ZM120.769 9.60002H115.915V13.44H120.769V9.60002ZM113.002 9.60002H108.147V13.44H113.002V9.60002ZM105.235 9.60002H100.38V13.44H105.235V9.60002ZM97.4673 9.60002H92.6127V13.44H97.4673V9.60002ZM89.7 9.60002H84.8455V13.44H89.7V9.60002ZM81.9327 9.60002H77.0782V13.44H81.9327V9.60002ZM74.1655 9.60002H69.3109V13.44H74.1655V9.60002ZM66.3982 9.60002H61.5436V13.44H66.3982V9.60002ZM58.6309 9.60002H53.7764V13.44H58.6309V9.60002ZM50.8636 9.60002H46.0091V13.44H50.8636V9.60002ZM43.0964 9.60002H38.2418V13.44H43.0964V9.60002ZM35.3291 9.60002H30.4745V13.44H35.3291V9.60002ZM27.5618 9.60002H22.7073V13.44H27.5618V9.60002ZM19.7945 9.60002H14.94V13.44H19.7945V9.60002ZM12.0273 9.60002H9.6V13.44H12.0273V9.60002Z" fill="#0BA36E" mask="url(#path-2-outside-1_378_3616)"></path><mask id="path-4-outside-2_378_3616" maskUnits="userSpaceOnUse" x="178.4" y="9.52002" width="174" height="43" fill="black"><rect fill="white" x="178.4" y="9.52002" width="174" height="43"></rect><path d="M350.4 11.52H178.56V49.92H350.4V11.52Z"></path></mask><path d="M350.4 11.52V10.56C350.93 10.56 351.36 10.9898 351.36 11.52H350.4ZM350.4 49.92H351.36C351.36 50.4502 350.93 50.88 350.4 50.88V49.92ZM351.36 11.52V13.92H349.44V11.52H351.36ZM351.36 16.8V21.6H349.44V16.8H351.36ZM351.36 24.48V29.28H349.44V24.48H351.36ZM351.36 32.16V36.96H349.44V32.16H351.36ZM351.36 39.84V44.64H349.44V39.84H351.36ZM351.36 47.52V49.92H349.44V47.52H351.36ZM350.4 50.88H347.959V48.96H350.4V50.88ZM345.03 50.88H340.148V48.96H345.03V50.88ZM337.219 50.88H332.337V48.96H337.219V50.88ZM329.408 50.88H324.526V48.96H329.408V50.88ZM321.597 50.88H316.715V48.96H321.597V50.88ZM313.786 50.88H308.905V48.96H313.786V50.88ZM305.975 50.88H301.094V48.96H305.975V50.88ZM298.165 50.88H293.283V48.96H298.165V50.88ZM290.354 50.88H285.472V48.96H290.354V50.88ZM282.543 50.88H277.661V48.96H282.543V50.88ZM274.732 50.88H269.85V48.96H274.732V50.88ZM266.921 50.88H262.039V48.96H266.921V50.88ZM259.11 50.88H254.228V48.96H259.11V50.88ZM251.299 50.88H246.417V48.96H251.299V50.88ZM243.488 50.88H238.606V48.96H243.488V50.88ZM235.677 50.88H230.795V48.96H235.677V50.88ZM227.866 50.88H222.985V48.96H227.866V50.88ZM220.055 50.88H215.174V48.96H220.055V50.88ZM212.245 50.88H207.363V48.96H212.245V50.88ZM204.434 50.88H199.552V48.96H204.434V50.88ZM196.623 50.88H191.741V48.96H196.623V50.88ZM188.812 50.88H183.93V48.96H188.812V50.88ZM181.001 50.88H178.56V48.96H181.001V50.88ZM178.56 10.56H181.001V12.48H178.56V10.56ZM183.93 10.56H188.812V12.48H183.93V10.56ZM191.741 10.56H196.623V12.48H191.741V10.56ZM199.552 10.56H204.434V12.48H199.552V10.56ZM207.363 10.56H212.245V12.48H207.363V10.56ZM215.174 10.56H220.055V12.48H215.174V10.56ZM222.985 10.56H227.866V12.48H222.985V10.56ZM230.795 10.56H235.677V12.48H230.795V10.56ZM238.606 10.56H243.488V12.48H238.606V10.56ZM246.417 10.56H251.299V12.48H246.417V10.56ZM254.228 10.56H259.11V12.48H254.228V10.56ZM262.039 10.56H266.921V12.48H262.039V10.56ZM269.85 10.56H274.732V12.48H269.85V10.56ZM277.661 10.56H282.543V12.48H277.661V10.56ZM285.472 10.56H290.354V12.48H285.472V10.56ZM293.283 10.56H298.165V12.48H293.283V10.56ZM301.094 10.56H305.975V12.48H301.094V10.56ZM308.905 10.56H313.786V12.48H308.905V10.56ZM316.715 10.56H321.597V12.48H316.715V10.56ZM324.526 10.56H329.408V12.48H324.526V10.56ZM332.337 10.56H337.219V12.48H332.337V10.56ZM340.148 10.56H345.03V12.48H340.148V10.56ZM347.959 10.56H350.4V12.48H347.959V10.56ZM350.4 11.52V9.60002C351.46 9.60002 352.32 10.4596 352.32 11.52H350.4ZM350.4 49.92H352.32C352.32 50.9804 351.46 51.84 350.4 51.84V49.92ZM352.32 11.52V13.92H348.48V11.52H352.32ZM352.32 16.8V21.6H348.48V16.8H352.32ZM352.32 24.48V29.28H348.48V24.48H352.32ZM352.32 32.16V36.96H348.48V32.16H352.32ZM352.32 39.84V44.64H348.48V39.84H352.32ZM352.32 47.52V49.92H348.48V47.52H352.32ZM350.4 51.84H347.959V48H350.4V51.84ZM345.03 51.84H340.148V48H345.03V51.84ZM337.219 51.84H332.337V48H337.219V51.84ZM329.408 51.84H324.526V48H329.408V51.84ZM321.597 51.84H316.715V48H321.597V51.84ZM313.786 51.84H308.905V48H313.786V51.84ZM305.975 51.84H301.094V48H305.975V51.84ZM298.165 51.84H293.283V48H298.165V51.84ZM290.354 51.84H285.472V48H290.354V51.84ZM282.543 51.84H277.661V48H282.543V51.84ZM274.732 51.84H269.85V48H274.732V51.84ZM266.921 51.84H262.039V48H266.921V51.84ZM259.11 51.84H254.228V48H259.11V51.84ZM251.299 51.84H246.417V48H251.299V51.84ZM243.488 51.84H238.606V48H243.488V51.84ZM235.677 51.84H230.795V48H235.677V51.84ZM227.866 51.84H222.985V48H227.866V51.84ZM220.055 51.84H215.174V48H220.055V51.84ZM212.245 51.84H207.363V48H212.245V51.84ZM204.434 51.84H199.552V48H204.434V51.84ZM196.623 51.84H191.741V48H196.623V51.84ZM188.812 51.84H183.93V48H188.812V51.84ZM181.001 51.84H178.56V48H181.001V51.84ZM178.56 9.60002H181.001V13.44H178.56V9.60002ZM183.93 9.60002H188.812V13.44H183.93V9.60002ZM191.741 9.60002H196.623V13.44H191.741V9.60002ZM199.552 9.60002H204.434V13.44H199.552V9.60002ZM207.363 9.60002H212.245V13.44H207.363V9.60002ZM215.174 9.60002H220.055V13.44H215.174V9.60002ZM222.985 9.60002H227.866V13.44H222.985V9.60002ZM230.795 9.60002H235.677V13.44H230.795V9.60002ZM238.606 9.60002H243.488V13.44H238.606V9.60002ZM246.417 9.60002H251.299V13.44H246.417V9.60002ZM254.228 9.60002H259.11V13.44H254.228V9.60002ZM262.039 9.60002H266.921V13.44H262.039V9.60002ZM269.85 9.60002H274.732V13.44H269.85V9.60002ZM277.661 9.60002H282.543V13.44H277.661V9.60002ZM285.472 9.60002H290.354V13.44H285.472V9.60002ZM293.283 9.60002H298.165V13.44H293.283V9.60002ZM301.094 9.60002H305.975V13.44H301.094V9.60002ZM308.905 9.60002H313.786V13.44H308.905V9.60002ZM316.715 9.60002H321.597V13.44H316.715V9.60002ZM324.526 9.60002H329.408V13.44H324.526V9.60002ZM332.337 9.60002H337.219V13.44H332.337V9.60002ZM340.148 9.60002H345.03V13.44H340.148V9.60002ZM347.959 9.60002H350.4V13.44H347.959V9.60002Z" fill="#116E96" mask="url(#path-4-outside-2_378_3616)"></path><path d="M180.217 48.96L168.361 12.48H349.44V48.96H180.217Z" fill="#116E96" stroke="white" stroke-width="1.92"></path><path d="M10.56 12.48H167.303L179.159 48.96H10.56V12.48Z" fill="#0CAC74" stroke="white" stroke-width="1.92"></path><path d="M203.599 33.8831L207.41 33.855C207.269 35.0362 206.899 36.0722 206.299 36.9628C205.699 37.8534 204.921 38.5425 203.964 39.03C203.018 39.5175 201.944 39.7472 200.744 39.719C199.628 39.6909 198.714 39.4378 198.002 38.9597C197.299 38.4722 196.76 37.8394 196.385 37.0612C196.01 36.2831 195.771 35.43 195.668 34.5019C195.564 33.5737 195.564 32.6409 195.668 31.7034L195.766 30.944C195.878 29.9597 196.113 28.98 196.469 28.005C196.835 27.03 197.313 26.1534 197.903 25.3753C198.503 24.5878 199.23 23.9644 200.083 23.505C200.946 23.0456 201.935 22.83 203.05 22.8581C204.241 22.8956 205.23 23.1769 206.018 23.7019C206.805 24.2269 207.396 24.9394 207.789 25.8394C208.193 26.73 208.413 27.7331 208.45 28.8487H204.611C204.621 28.38 204.583 27.944 204.499 27.5409C204.414 27.1378 204.236 26.8097 203.964 26.5565C203.693 26.294 203.294 26.1534 202.769 26.1347C202.16 26.1065 201.663 26.2519 201.278 26.5706C200.894 26.8894 200.585 27.3065 200.35 27.8222C200.125 28.3284 199.957 28.8628 199.844 29.4253C199.741 29.9878 199.661 30.494 199.605 30.944L199.535 31.6894C199.497 32.0362 199.45 32.4769 199.394 33.0112C199.347 33.5362 199.343 34.0612 199.38 34.5862C199.418 35.1112 199.563 35.5519 199.816 35.9081C200.069 36.2644 200.472 36.4519 201.025 36.4706C201.569 36.4894 202.014 36.3862 202.361 36.1612C202.718 35.9269 202.989 35.6081 203.177 35.205C203.374 34.8019 203.514 34.3612 203.599 33.8831ZM223.222 30.8878L223.166 31.5206C223.053 32.5237 222.81 33.5175 222.435 34.5019C222.069 35.4769 221.572 36.3628 220.944 37.1597C220.325 37.9565 219.575 38.5894 218.694 39.0581C217.813 39.5269 216.805 39.7425 215.671 39.705C214.574 39.6769 213.664 39.419 212.942 38.9315C212.23 38.444 211.667 37.8112 211.255 37.0331C210.852 36.2456 210.585 35.3831 210.453 34.4456C210.332 33.5081 210.317 32.5753 210.411 31.6472L210.482 31.0144C210.603 30.0112 210.847 29.0222 211.213 28.0472C211.588 27.0628 212.089 26.1769 212.717 25.3894C213.346 24.6019 214.096 23.9784 214.967 23.519C215.849 23.0503 216.857 22.8347 217.991 22.8722C219.078 22.9003 219.978 23.1581 220.691 23.6456C221.413 24.1237 221.975 24.7565 222.378 25.544C222.782 26.3222 223.044 27.1753 223.166 28.1034C223.297 29.0315 223.316 29.9597 223.222 30.8878ZM219.313 31.5065L219.369 30.8597C219.407 30.5034 219.435 30.0675 219.453 29.5519C219.472 29.0269 219.439 28.5065 219.355 27.9909C219.28 27.4753 219.111 27.0394 218.849 26.6831C218.586 26.3269 218.192 26.1347 217.667 26.1065C217.058 26.0784 216.552 26.2284 216.149 26.5565C215.746 26.8847 215.413 27.3065 215.15 27.8222C214.897 28.3378 214.705 28.8815 214.574 29.4534C214.452 30.0159 214.363 30.5269 214.307 30.9862L214.236 31.6331C214.208 31.9987 214.18 32.444 214.152 32.969C214.133 33.494 214.161 34.0237 214.236 34.5581C214.321 35.0831 214.494 35.5284 214.757 35.894C215.028 36.2597 215.436 36.4519 215.98 36.4706C216.58 36.4987 217.082 36.344 217.485 36.0065C217.897 35.6597 218.225 35.2237 218.469 34.6987C218.722 34.1644 218.91 33.6112 219.032 33.0394C219.153 32.4581 219.247 31.9472 219.313 31.5065ZM235.252 23.0972H239.091L237.291 33.7144C237.15 34.8862 236.803 35.9315 236.25 36.8503C235.697 37.769 234.956 38.4815 234.028 38.9878C233.1 39.494 232.017 39.7378 230.78 39.719C229.608 39.6909 228.628 39.4144 227.841 38.8894C227.063 38.3644 226.496 37.6565 226.139 36.7659C225.792 35.8659 225.685 34.8534 225.816 33.7284L227.588 23.0972H231.441L229.669 33.7425C229.622 34.1456 229.613 34.5534 229.641 34.9659C229.669 35.369 229.791 35.7159 230.006 36.0065C230.231 36.2878 230.592 36.4378 231.089 36.4565C231.624 36.4753 232.055 36.3487 232.383 36.0769C232.721 35.805 232.964 35.4628 233.114 35.0503C233.274 34.6284 233.386 34.1878 233.452 33.7284L235.252 23.0972ZM246.663 34.094L242.992 34.08L243.583 30.8034L246.845 30.8175C247.267 30.8081 247.647 30.7144 247.985 30.5362C248.322 30.3487 248.594 30.1003 248.8 29.7909C249.016 29.4722 249.156 29.0972 249.222 28.6659C249.278 28.3565 249.283 28.0284 249.236 27.6815C249.189 27.3347 249.067 27.044 248.87 26.8097C248.674 26.5659 248.378 26.4253 247.985 26.3878L245.72 26.3737L243.442 39.48H239.589L242.43 23.0972L248.139 23.1112C249.199 23.1394 250.108 23.3972 250.867 23.8847C251.627 24.3628 252.199 25.0144 252.583 25.8394C252.967 26.6644 253.122 27.6019 253.047 28.6519C252.991 29.5237 252.78 30.2972 252.414 30.9722C252.058 31.6378 251.589 32.205 251.008 32.6737C250.427 33.1425 249.766 33.4987 249.025 33.7425C248.294 33.9862 247.506 34.1034 246.663 34.094ZM268.17 30.8878L268.114 31.5206C268.002 32.5237 267.758 33.5175 267.383 34.5019C267.017 35.4769 266.52 36.3628 265.892 37.1597C265.274 37.9565 264.524 38.5894 263.642 39.0581C262.761 39.5269 261.753 39.7425 260.619 39.705C259.522 39.6769 258.613 39.419 257.891 38.9315C257.178 38.444 256.616 37.8112 256.203 37.0331C255.8 36.2456 255.533 35.3831 255.402 34.4456C255.28 33.5081 255.266 32.5753 255.359 31.6472L255.43 31.0144C255.552 30.0112 255.795 29.0222 256.161 28.0472C256.536 27.0628 257.038 26.1769 257.666 25.3894C258.294 24.6019 259.044 23.9784 259.916 23.519C260.797 23.0503 261.805 22.8347 262.939 22.8722C264.027 22.9003 264.927 23.1581 265.639 23.6456C266.361 24.1237 266.924 24.7565 267.327 25.544C267.73 26.3222 267.992 27.1753 268.114 28.1034C268.245 29.0315 268.264 29.9597 268.17 30.8878ZM264.261 31.5065L264.317 30.8597C264.355 30.5034 264.383 30.0675 264.402 29.5519C264.42 29.0269 264.388 28.5065 264.303 27.9909C264.228 27.4753 264.059 27.0394 263.797 26.6831C263.534 26.3269 263.141 26.1347 262.616 26.1065C262.006 26.0784 261.5 26.2284 261.097 26.5565C260.694 26.8847 260.361 27.3065 260.099 27.8222C259.845 28.3378 259.653 28.8815 259.522 29.4534C259.4 30.0159 259.311 30.5269 259.255 30.9862L259.184 31.6331C259.156 31.9987 259.128 32.444 259.1 32.969C259.081 33.494 259.109 34.0237 259.184 34.5581C259.269 35.0831 259.442 35.5284 259.705 35.894C259.977 36.2597 260.384 36.4519 260.928 36.4706C261.528 36.4987 262.03 36.344 262.433 36.0065C262.845 35.6597 263.174 35.2237 263.417 34.6987C263.67 34.1644 263.858 33.6112 263.98 33.0394C264.102 32.4581 264.195 31.9472 264.261 31.5065ZM284.813 23.0972L281.958 39.48H278.217L275.419 29.1159L273.605 39.48H269.752L272.592 23.0972H276.361L279.145 33.4612L280.945 23.0972H284.813ZM293.383 34.98C293.43 34.6706 293.416 34.4081 293.341 34.1925C293.275 33.9675 293.162 33.7753 293.003 33.6159C292.844 33.4472 292.656 33.3065 292.441 33.194C292.225 33.0722 291.991 32.9644 291.737 32.8706C291.1 32.6269 290.509 32.369 289.966 32.0972C289.422 31.8253 288.958 31.5019 288.573 31.1269C288.189 30.7425 287.894 30.2878 287.687 29.7628C287.491 29.2284 287.416 28.5769 287.462 27.8081C287.509 27.0487 287.692 26.3644 288.011 25.755C288.339 25.1362 288.766 24.6112 289.291 24.18C289.825 23.7394 290.425 23.4065 291.091 23.1815C291.766 22.9565 292.469 22.8487 293.2 22.8581C294.241 22.8769 295.145 23.0972 295.914 23.519C296.692 23.9315 297.292 24.5175 297.714 25.2769C298.136 26.0362 298.333 26.9362 298.305 27.9769H294.48C294.489 27.6487 294.451 27.3253 294.367 27.0065C294.283 26.6878 294.133 26.4253 293.917 26.219C293.701 26.0034 293.392 25.8956 292.989 25.8956C292.651 25.905 292.347 25.9894 292.075 26.1487C291.803 26.2987 291.583 26.505 291.414 26.7675C291.245 27.03 291.133 27.3253 291.076 27.6534C291.039 27.9253 291.058 28.1644 291.133 28.3706C291.217 28.5675 291.344 28.7409 291.512 28.8909C291.681 29.0409 291.869 29.1722 292.075 29.2847C292.291 29.3878 292.506 29.4769 292.722 29.5519C293.378 29.7956 293.978 30.0675 294.522 30.3675C295.066 30.6581 295.53 31.005 295.914 31.4081C296.298 31.8112 296.584 32.294 296.772 32.8565C296.969 33.4097 297.039 34.0706 296.983 34.8394C296.936 35.655 296.744 36.3675 296.406 36.9769C296.078 37.5862 295.647 38.0972 295.112 38.5097C294.587 38.9222 293.978 39.2315 293.284 39.4378C292.6 39.6347 291.873 39.7284 291.105 39.719C290.289 39.7003 289.548 39.5644 288.883 39.3112C288.226 39.0487 287.664 38.6784 287.195 38.2003C286.736 37.7222 286.384 37.1503 286.141 36.4847C285.906 35.819 285.803 35.0737 285.831 34.2487L289.684 34.2628C289.666 34.619 289.675 34.9472 289.712 35.2472C289.75 35.5472 289.83 35.8097 289.951 36.0347C290.083 36.2503 290.275 36.419 290.528 36.5409C290.791 36.6628 291.123 36.719 291.526 36.7097C291.892 36.7003 292.201 36.6206 292.455 36.4706C292.708 36.3206 292.914 36.119 293.073 35.8659C293.233 35.6034 293.336 35.3081 293.383 34.98ZM300.251 37.5534C300.251 36.9065 300.467 36.3675 300.898 35.9362C301.33 35.505 301.869 35.2847 302.516 35.2753C303.134 35.2659 303.655 35.4628 304.076 35.8659C304.498 36.2597 304.714 36.7659 304.723 37.3847C304.733 38.0409 304.517 38.58 304.076 39.0019C303.645 39.4237 303.111 39.6394 302.473 39.6487C301.864 39.6581 301.344 39.4706 300.912 39.0862C300.481 38.6925 300.261 38.1815 300.251 37.5534ZM313.364 39.48H310.031L310.622 36.2175L313.533 36.2315C314.461 36.2409 315.187 36.0253 315.712 35.5847C316.247 35.1347 316.64 34.5534 316.894 33.8409C317.147 33.1284 317.32 32.3737 317.414 31.5769L317.484 30.93C317.54 30.48 317.578 30.0065 317.597 29.5097C317.625 29.0034 317.592 28.5206 317.498 28.0612C317.414 27.5925 317.222 27.2081 316.922 26.9081C316.622 26.5987 316.176 26.43 315.586 26.4019L312.239 26.3737L312.801 23.0972L315.74 23.1112C316.809 23.1394 317.719 23.3831 318.469 23.8425C319.219 24.2925 319.819 24.8925 320.269 25.6425C320.719 26.3831 321.028 27.2128 321.197 28.1315C321.365 29.0409 321.403 29.9784 321.309 30.944L321.239 31.5769C321.08 32.9737 320.662 34.2769 319.987 35.4862C319.312 36.6956 318.412 37.6706 317.287 38.4112C316.162 39.1425 314.855 39.4987 313.364 39.48ZM315.122 23.0972L312.281 39.48H308.428L311.269 23.0972H315.122ZM333.493 36.2175L332.917 39.48H325.422L325.998 36.2175H333.493ZM329.57 23.0972L326.729 39.48H322.876L325.717 23.0972H329.57ZM333.69 29.369L333.1 32.6456H326.603L327.165 29.369H333.69ZM335.772 23.0972L335.195 26.3737H327.686L328.248 23.0972H335.772Z" fill="white"></path><path d="M27.765 39.48H24.4322L25.0228 36.2175L27.9338 36.2315C28.8619 36.2409 29.5884 36.0253 30.1134 35.5847C30.6478 35.1347 31.0416 34.5534 31.2947 33.8409C31.5478 33.1284 31.7213 32.3737 31.815 31.5769L31.8853 30.93C31.9416 30.48 31.9791 30.0065 31.9978 29.5097C32.0259 29.0034 31.9931 28.5206 31.8994 28.0612C31.815 27.5925 31.6228 27.2081 31.3228 26.9081C31.0228 26.5987 30.5775 26.43 29.9869 26.4019L26.64 26.3737L27.2025 23.0972L30.1416 23.1112C31.2103 23.1394 32.1197 23.3831 32.8697 23.8425C33.6197 24.2925 34.2197 24.8925 34.6697 25.6425C35.1197 26.3831 35.4291 27.2128 35.5978 28.1315C35.7666 29.0409 35.8041 29.9784 35.7103 30.944L35.64 31.5769C35.4806 32.9737 35.0634 34.2769 34.3884 35.4862C33.7134 36.6956 32.8134 37.6706 31.6884 38.4112C30.5634 39.1425 29.2556 39.4987 27.765 39.48ZM29.5228 23.0972L26.6822 39.48H22.8291L25.6697 23.0972H29.5228ZM44.1681 23.0972L41.3134 39.48H37.4603L40.3009 23.0972H44.1681ZM55.4805 36.2175L54.9039 39.48H47.4086L47.9852 36.2175H55.4805ZM51.5571 23.0972L48.7164 39.48H44.8633L47.7039 23.0972H51.5571ZM55.6774 29.369L55.0867 32.6456H48.5899L49.1524 29.369H55.6774ZM57.7586 23.0972L57.1821 26.3737H49.6727L50.2352 23.0972H57.7586ZM72.3116 32.6597H68.6132L69.0632 29.9034L72.1007 29.9175C72.4851 29.9081 72.8226 29.8331 73.1132 29.6925C73.4132 29.5425 73.6569 29.3362 73.8444 29.0737C74.0319 28.8019 74.1585 28.4737 74.2241 28.0894C74.271 27.78 74.271 27.5034 74.2241 27.2597C74.1866 27.0065 74.0835 26.805 73.9147 26.655C73.7554 26.4956 73.5116 26.4065 73.1835 26.3878L71.1163 26.3737L68.8382 39.48H64.9851L67.8257 23.0972L73.0147 23.1112C73.7085 23.1206 74.3741 23.2144 75.0116 23.3925C75.6585 23.5612 76.2257 23.819 76.7132 24.1659C77.2007 24.5034 77.571 24.9534 77.8241 25.5159C78.0866 26.069 78.1944 26.7394 78.1476 27.5269C78.1101 28.4269 77.8804 29.1675 77.4585 29.7487C77.0366 30.33 76.4788 30.7706 75.7851 31.0706C75.1007 31.3706 74.3366 31.53 73.4929 31.5487L72.3116 32.6597ZM71.0601 39.48H66.3632L68.2897 36.2175L71.2288 36.2315C71.6132 36.2128 71.9554 36.1284 72.2554 35.9784C72.5554 35.8284 72.7991 35.6222 72.9866 35.3597C73.1835 35.0972 73.3147 34.7737 73.3804 34.3894C73.4272 34.0894 73.4319 33.8175 73.3944 33.5737C73.3663 33.3206 73.2679 33.119 73.0991 32.969C72.9397 32.8097 72.6866 32.7112 72.3397 32.6737L69.1476 32.6597L69.6257 29.9034L73.0429 29.9175L73.7179 31.0284C74.4772 31.019 75.1147 31.1644 75.6304 31.4644C76.1554 31.755 76.5444 32.1769 76.7976 32.73C77.0507 33.2737 77.1632 33.9206 77.1351 34.6706C77.0976 35.5519 76.9101 36.3019 76.5726 36.9206C76.2444 37.53 75.8038 38.0269 75.2507 38.4112C74.6976 38.7862 74.0601 39.0628 73.3382 39.2409C72.6163 39.4097 71.8569 39.4894 71.0601 39.48ZM90.1631 36.2175L89.5866 39.48H82.0912L82.6678 36.2175H90.1631ZM86.2397 23.0972L83.3991 39.48H79.5459L82.3866 23.0972H86.2397ZM90.36 29.369L89.7694 32.6456H83.2725L83.835 29.369H90.36ZM92.4412 23.0972L91.8647 26.3737H84.3553L84.9178 23.0972H92.4412ZM100.28 34.98C100.327 34.6706 100.313 34.4081 100.238 34.1925C100.172 33.9675 100.06 33.7753 99.9006 33.6159C99.7412 33.4472 99.5537 33.3065 99.3381 33.194C99.1224 33.0722 98.8881 32.9644 98.6349 32.8706C97.9974 32.6269 97.4068 32.369 96.8631 32.0972C96.3193 31.8253 95.8552 31.5019 95.4709 31.1269C95.0865 30.7425 94.7912 30.2878 94.5849 29.7628C94.3881 29.2284 94.3131 28.5769 94.3599 27.8081C94.4068 27.0487 94.5896 26.3644 94.9084 25.755C95.2365 25.1362 95.6631 24.6112 96.1881 24.18C96.7224 23.7394 97.3224 23.4065 97.9881 23.1815C98.6631 22.9565 99.3662 22.8487 100.097 22.8581C101.138 22.8769 102.043 23.0972 102.811 23.519C103.59 23.9315 104.19 24.5175 104.611 25.2769C105.033 26.0362 105.23 26.9362 105.202 27.9769H101.377C101.386 27.6487 101.349 27.3253 101.265 27.0065C101.18 26.6878 101.03 26.4253 100.815 26.219C100.599 26.0034 100.29 25.8956 99.8865 25.8956C99.549 25.905 99.2443 25.9894 98.9724 26.1487C98.7006 26.2987 98.4802 26.505 98.3115 26.7675C98.1427 27.03 98.0302 27.3253 97.974 27.6534C97.9365 27.9253 97.9552 28.1644 98.0302 28.3706C98.1146 28.5675 98.2412 28.7409 98.4099 28.8909C98.5787 29.0409 98.7662 29.1722 98.9724 29.2847C99.1881 29.3878 99.4037 29.4769 99.6193 29.5519C100.276 29.7956 100.876 30.0675 101.419 30.3675C101.963 30.6581 102.427 31.005 102.811 31.4081C103.196 31.8112 103.482 32.294 103.669 32.8565C103.866 33.4097 103.936 34.0706 103.88 34.8394C103.833 35.655 103.641 36.3675 103.304 36.9769C102.976 37.5862 102.544 38.0972 102.01 38.5097C101.485 38.9222 100.876 39.2315 100.182 39.4378C99.4974 39.6347 98.7709 39.7284 98.0021 39.719C97.1865 39.7003 96.4459 39.5644 95.7802 39.3112C95.124 39.0487 94.5615 38.6784 94.0927 38.2003C93.6334 37.7222 93.2818 37.1503 93.0381 36.4847C92.8037 35.819 92.7006 35.0737 92.7287 34.2487L96.5818 34.2628C96.5631 34.619 96.5724 34.9472 96.6099 35.2472C96.6474 35.5472 96.7271 35.8097 96.849 36.0347C96.9802 36.2503 97.1724 36.419 97.4256 36.5409C97.6881 36.6628 98.0209 36.719 98.424 36.7097C98.7896 36.7003 99.099 36.6206 99.3521 36.4706C99.6052 36.3206 99.8115 36.119 99.9709 35.8659C100.13 35.6034 100.233 35.3081 100.28 34.98ZM116.458 23.0972L113.618 39.48H109.765L112.605 23.0972H116.458ZM120.635 23.0972L120.072 26.3737H107.951L108.527 23.0972H120.635ZM131.146 36.2175L130.569 39.48H123.074L123.65 36.2175H131.146ZM127.222 23.0972L124.382 39.48H120.529L123.369 23.0972H127.222ZM131.343 29.369L130.752 32.6456H124.255L124.818 29.369H131.343ZM133.424 23.0972L132.847 26.3737H125.338L125.9 23.0972H133.424ZM148.266 23.0972L145.411 39.48H141.671L138.872 29.1159L137.058 39.48H133.205L136.046 23.0972H139.814L142.599 33.4612L144.399 23.0972H148.266Z" fill="white"></path><rect width="24.96" height="4.8" transform="matrix(1 0 0 -1 159.36 14.4001)" fill="white"></rect><path d="M166 18.5792L166.365 19.4678C166.419 19.4459 166.447 19.4459 166.462 19.4468C166.483 19.448 166.523 19.4544 166.595 19.4859C166.671 19.5191 166.762 19.5712 166.887 19.6526C166.948 19.6925 167.01 19.7345 167.082 19.7829L167.084 19.7845C167.154 19.8317 167.232 19.8851 167.313 19.9375L167.315 19.9386L167.876 20.301C168.12 20.5468 168.269 20.8755 168.289 21.2245L168.29 21.2356L168.291 21.2467C168.307 21.4399 168.304 21.5609 168.301 21.7139C168.299 21.8063 168.296 21.9103 168.298 22.0489C168.301 22.3939 168.339 22.7661 168.499 23.2534L168.504 23.2682L168.509 23.2829C168.867 24.2618 169.508 25.1129 170.351 25.7255L187.639 43.128L188.731 44.2276L189.23 42.7677C190.31 39.6098 189.371 36.3504 186.664 33.1346L186.638 33.1026L186.608 33.073L174.008 20.4925L173.94 19.1286C173.932 18.9781 173.948 18.828 173.985 18.6835L174.288 18.0931L174.288 18.0913C174.332 18.0059 174.373 17.9208 174.409 17.8455L174.411 17.843C174.448 17.7658 174.48 17.6987 174.513 17.634C174.58 17.5016 174.633 17.4113 174.682 17.3449C174.729 17.282 174.76 17.2565 174.777 17.2453C174.79 17.237 174.815 17.2231 174.872 17.2153C174.883 17.2138 174.941 17.2077 175.072 17.2786C175.213 17.3546 175.4 17.4996 175.629 17.7454L175.709 17.8317L175.808 17.8962C176.514 18.3581 177.309 18.6668 178.14 18.8017L178.14 18.8018L178.152 18.8035C178.988 18.9289 179.839 18.8966 180.661 18.7082L180.701 18.699L180.74 18.6863C183.403 17.8296 185.378 15.9096 186.277 12.5198C186.829 10.6148 186.877 8.91727 186.474 7.3998C186.069 5.87847 185.229 4.61039 184.122 3.5381L184.084 3.50104L184.042 3.46841C182.381 2.18123 180.598 1.80639 178.826 2.27627C176.253 2.95854 174.53 4.76073 173.491 7.01107L173.485 7.02386L173.48 7.03683C172.862 8.48829 172.383 9.99684 172.052 11.5419L170.062 16.2803L165.948 13.1603C164.879 11.9875 163.703 10.918 162.436 9.96602L162.424 9.95693L162.411 9.94823C160.374 8.51544 157.987 7.80201 155.397 8.48875C153.614 8.96156 152.275 10.165 151.474 12.091L151.452 12.1434L151.437 12.1981C151.02 13.6727 150.929 15.1875 151.346 16.7075C151.763 18.2239 152.667 19.672 154.122 21.0487C156.615 23.5364 159.291 24.223 162.03 23.6474L162.07 23.6391L162.108 23.6277C162.921 23.3844 163.681 22.9897 164.346 22.4644L164.354 22.4582L164.362 22.4519C165.005 21.9222 165.529 21.2624 165.901 20.5153L165.951 20.4145L165.977 20.3046C166.052 19.9772 166.141 19.7577 166.226 19.621C166.305 19.4919 166.359 19.4702 166.366 19.4673L166.366 19.4672L166 18.5792ZM166 18.5792C166.635 18.3221 167.125 18.655 167.617 18.9888C167.689 19.038 167.762 19.0872 167.835 19.1346L163.748 21.7114C164.287 21.2672 164.727 20.7135 165.04 20.0861C165.218 19.3126 165.52 18.7743 166 18.5792ZM177.884 14.1286L177.855 14.1022C177.356 13.5974 177.047 12.9331 176.984 12.2248L176.982 12.2123L176.981 12.1998C176.892 11.4376 176.929 10.6672 177.09 9.91972L177.092 9.90784L177.095 9.8959C177.268 8.97925 177.712 8.14055 178.369 7.48903C179.11 6.77054 179.912 6.47815 180.521 6.52859C181.049 6.57233 181.627 6.88832 182.002 7.88878C182.389 9.07178 182.404 10.3422 182.048 11.5268C181.671 12.7461 181.095 13.557 180.384 14.0423L180.383 14.0431C179.902 14.3724 179.433 14.5434 179.025 14.5623C178.644 14.5801 178.262 14.4698 177.884 14.1286ZM171.769 22.8405L171.766 22.8412C171.729 22.8511 171.689 22.8498 171.651 22.8366C171.612 22.8234 171.577 22.7986 171.551 22.764C171.524 22.7294 171.508 22.6873 171.505 22.6434C171.502 22.5995 171.512 22.557 171.533 22.5211C171.554 22.4853 171.584 22.4577 171.618 22.4406C171.653 22.4236 171.692 22.4172 171.731 22.4227C171.771 22.4281 171.809 22.4453 171.841 22.4735C171.873 22.5019 171.896 22.5397 171.908 22.5825L171.908 22.585C171.916 22.613 171.918 22.6419 171.914 22.67C171.911 22.6981 171.902 22.7246 171.888 22.7481C171.875 22.7715 171.857 22.7915 171.837 22.8072C171.816 22.8228 171.793 22.8341 171.769 22.8405ZM162.025 16.1902C162.321 16.8225 162.391 17.5345 162.227 18.2059L162.201 18.287C162.046 18.7703 161.771 19.0541 161.433 19.2271C161.071 19.4121 160.58 19.4957 159.997 19.4486L159.995 19.4484C159.133 19.3808 158.227 18.9648 157.267 18.0962C156.368 17.2426 155.747 16.1346 155.489 14.921C155.309 13.8678 155.65 13.3073 156.086 13.0078C156.588 12.6627 157.431 12.5188 158.436 12.7746C159.333 13.0133 160.14 13.5195 160.751 14.2279L160.76 14.2384L160.77 14.2487C161.287 14.8148 161.707 15.463 162.014 16.1667L162.019 16.1785L162.025 16.1902Z" fill="#332D2F" stroke="white" stroke-width="1.92"></path></g><defs><clipPath id="clip0_378_3616"><rect width="360" height="57" fill="white"></rect></clipPath></defs></svg>