<svg width="14" height="14" viewBox="0 0 14 14" fill="none" xmlns="http://www.w3.org/2000/svg">
<g id="ic:baseline-paypal">
<path id="Vector" d="M5.7925 7.5775C5.85084 7.5775 7.20417 7.63583 8.00917 7.4375H8.015C8.9425 7.21 10.2317 6.55667 10.5642 4.42167C10.5642 4.42167 11.305 1.75 7.63 1.75H4.47417C4.18834 1.75 3.94334 1.96 3.89667 2.24L2.555 10.7333C2.52584 10.9083 2.66584 11.0717 2.84084 11.0717H4.84167L5.33167 7.96833C5.36667 7.74667 5.55917 7.5775 5.7925 7.5775Z" fill="#35393E"/>
<path id="Vector_2" d="M11.0775 4.83594C10.605 7.01177 9.1175 8.16094 6.74916 8.16094H5.89166L5.29083 11.9643C5.2675 12.1159 5.38416 12.2501 5.53583 12.2501H6.64416C6.8425 12.2501 7.0175 12.1043 7.04666 11.9059C7.09333 11.6726 7.35 9.96927 7.4025 9.6776C7.43166 9.47927 7.60666 9.33344 7.805 9.33344H8.06166C9.70666 9.33344 10.9958 8.6626 11.375 6.73177C11.5267 5.9501 11.445 5.30844 11.0775 4.83594Z" fill="#35393E"/>
</g>
</svg>
