<svg width="14" height="13" viewBox="0 0 14 13" fill="none" xmlns="http://www.w3.org/2000/svg">
<g id="fa6-solid:piggy-bank" clip-path="url(#clip0_218_13)">
<path id="Vector" d="M9.72222 2.33333V2.35035C9.5934 2.34062 9.46458 2.33333 9.33333 2.33333H6.22222C5.82118 2.33333 5.43229 2.38438 5.06042 2.47917C5.05799 2.43056 5.05556 2.38194 5.05556 2.33333C5.05556 1.04514 6.10069 0 7.38889 0C8.67708 0 9.72222 1.04514 9.72222 2.33333ZM9.33333 3.11111C9.4184 3.11111 9.50347 3.11354 9.58611 3.1184C9.68819 3.12569 9.79028 3.13542 9.89236 3.15C10.3201 2.65174 10.9569 2.33333 11.6667 2.33333H11.9462C12.199 2.33333 12.3837 2.57153 12.3229 2.81701L11.9875 4.15868C12.3715 4.5184 12.6851 4.9559 12.899 5.44444H13.2222C13.6524 5.44444 14 5.79201 14 6.22222V8.55556C14 8.98576 13.6524 9.33333 13.2222 9.33333H12.4444C12.2233 9.62743 11.9608 9.88993 11.6667 10.1111V11.6667C11.6667 12.0969 11.3191 12.4444 10.8889 12.4444H10.1111C9.6809 12.4444 9.33333 12.0969 9.33333 11.6667V10.8889H6.22222V11.6667C6.22222 12.0969 5.87465 12.4444 5.44444 12.4444H4.66667C4.23646 12.4444 3.88889 12.0969 3.88889 11.6667V10.1111C3.04063 9.47431 2.46215 8.49965 2.35278 7.38889H1.65278C0.738889 7.38889 0 6.65 0 5.73611C0 4.82222 0.738889 4.08333 1.65278 4.08333H1.75C2.07326 4.08333 2.33333 4.3434 2.33333 4.66667C2.33333 4.98993 2.07326 5.25 1.75 5.25H1.65278C1.38542 5.25 1.16667 5.46875 1.16667 5.73611C1.16667 6.00347 1.38542 6.22222 1.65278 6.22222H2.41111C2.70521 4.76875 3.81354 3.60937 5.23785 3.2375C5.55139 3.15486 5.88194 3.11111 6.22222 3.11111H9.33333ZM10.8889 6.41667C10.8889 6.26196 10.8274 6.11358 10.718 6.00419C10.6086 5.89479 10.4603 5.83333 10.3056 5.83333C10.1508 5.83333 10.0025 5.89479 9.89308 6.00419C9.78368 6.11358 9.72222 6.26196 9.72222 6.41667C9.72222 6.57138 9.78368 6.71975 9.89308 6.82915C10.0025 6.93854 10.1508 7 10.3056 7C10.4603 7 10.6086 6.93854 10.718 6.82915C10.8274 6.71975 10.8889 6.57138 10.8889 6.41667Z" fill="#35393E"/>
</g>
<defs>
<clipPath id="clip0_218_13">
<rect width="14" height="12.4444" fill="white"/>
</clipPath>
</defs>
</svg>
