<svg width="14" height="14" viewBox="0 0 14 14" fill="none" xmlns="http://www.w3.org/2000/svg">
<g id="ion:card">
<path id="Vector" d="M0.875 10.2812C0.875 10.6874 1.03633 11.0768 1.32349 11.364C1.61066 11.6512 2.00014 11.8125 2.40625 11.8125H11.5938C11.9999 11.8125 12.3893 11.6512 12.6765 11.364C12.9637 11.0768 13.125 10.6874 13.125 10.2812V6.07031H0.875V10.2812ZM2.67969 8.20312C2.67969 7.98556 2.76611 7.77692 2.91995 7.62308C3.07379 7.46924 3.28244 7.38281 3.5 7.38281H4.8125C5.03006 7.38281 5.23871 7.46924 5.39255 7.62308C5.54639 7.77692 5.63281 7.98556 5.63281 8.20312V8.75C5.63281 8.96756 5.54639 9.17621 5.39255 9.33005C5.23871 9.48389 5.03006 9.57031 4.8125 9.57031H3.5C3.28244 9.57031 3.07379 9.48389 2.91995 9.33005C2.76611 9.17621 2.67969 8.96756 2.67969 8.75V8.20312ZM11.5938 2.1875H2.40625C2.00014 2.1875 1.61066 2.34883 1.32349 2.63599C1.03633 2.92316 0.875 3.31264 0.875 3.71875V4.42969H13.125V3.71875C13.125 3.31264 12.9637 2.92316 12.6765 2.63599C12.3893 2.34883 11.9999 2.1875 11.5938 2.1875Z" fill="#35393E"/>
</g>
</svg>
