<svg width="14" height="14" viewBox="0 0 14 14" fill="none" xmlns="http://www.w3.org/2000/svg">
<g id="mdi:clock">
<path id="Vector" d="M7 1.1665C6.23395 1.1665 5.47541 1.31739 4.76768 1.61054C4.05994 1.90369 3.41688 2.33337 2.87521 2.87505C1.78125 3.96901 1.16666 5.45274 1.16666 6.99984C1.16666 8.54693 1.78125 10.0307 2.87521 11.1246C3.41688 11.6663 4.05994 12.096 4.76768 12.3891C5.47541 12.6823 6.23395 12.8332 7 12.8332C8.54709 12.8332 10.0308 12.2186 11.1248 11.1246C12.2187 10.0307 12.8333 8.54693 12.8333 6.99984C12.8333 6.23379 12.6824 5.47525 12.3893 4.76752C12.0961 4.05978 11.6665 3.41672 11.1248 2.87505C10.5831 2.33337 9.94005 1.90369 9.23232 1.61054C8.52459 1.31739 7.76604 1.1665 7 1.1665ZM9.45 9.44984L6.41666 7.58317V4.08317H7.29166V7.1165L9.91666 8.6915L9.45 9.44984Z" fill="#35393E"/>
</g>
</svg>
