<svg xmlns="http://www.w3.org/2000/svg" width="200" height="60" viewBox="0 0 200 60" fill="none"><rect width="200" height="60" fill="#F2F2F2"></rect><path d="M137.495 12H200V47.151H137.495V12Z" fill="#FA002E"></path><path d="M156.92 20.0784H161.26V35.3283H180.575V39.0726H156.918L156.92 20.0784Z" fill="white"></path><path d="M68.7493 12H131.254V47.151H68.7493V12Z" fill="#00ACF2"></path><path d="M97.8279 23.8227H86.8432V20.0784H113.157V23.8227H102.172V39.0726H97.8291L97.8279 23.8227Z" fill="white"></path><path d="M0 12H62.505V47.151H0V12Z" fill="#0036F2"></path><path d="M17.7537 20.0784H34.4096C39.4811 20.0784 42.3033 22.3581 42.3033 26.1827C42.3033 29.4634 40.1866 31.6642 36.5798 32.18L44.7473 39.0726H38.4813L30.8016 32.422H22.0979V39.0675H17.7588V20.0784H17.7537ZM33.8416 28.8674C36.5263 28.8674 37.8279 27.9988 37.8279 26.2349C37.8279 24.471 36.5263 23.6291 33.8416 23.6291H22.0966V28.8636H33.8391V28.8674H33.8416Z" fill="white"></path></svg>