<svg xmlns="http://www.w3.org/2000/svg" width="200" height="60" viewBox="0 0 200 60" fill="none"><rect width="200" height="60" fill="white"></rect><rect x="133" width="11" height="60" fill="#F2F2F2"></rect><path d="M163.968 39.0686C160.363 39.0686 159.961 43.4225 159.961 45.2811C159.961 48.3483 160.979 51.0842 163.676 51.0842C164.382 51.081 165.073 50.8859 165.676 50.5196C166.279 50.1533 166.771 49.6297 167.1 49.0047C167.72 47.6437 168.021 46.1591 167.982 44.6637C167.982 41.0506 166.426 39.0751 163.975 39.0751L163.968 39.0686ZM184.769 38.8606C182.402 38.8606 181.423 40.8101 181.307 42.9741H187.985C187.972 42.1618 187.901 38.8541 184.769 38.8541V38.8606ZM139.05 0.0194953V60H200V0.0259937H139.05V0.0194953ZM150.462 54.2164H145.839V49.3686H150.468V54.2229L150.462 54.2164ZM167.917 54.2164L167.774 51.552C167.367 52.4102 166.72 53.1323 165.913 53.6315C164.844 54.2937 163.604 54.626 162.347 54.5868C157.419 54.5868 154.515 51.1881 154.515 45.424C154.515 39.3285 157.821 35.5334 162.639 35.5334C163.646 35.4732 164.652 35.6728 165.56 36.1131C166.468 36.5534 167.248 37.2197 167.826 38.0483V27.8653H173.253V51.2596C173.253 52.3643 173.318 53.5601 173.402 54.2489H167.936L167.917 54.2164ZM193.49 46.3728H181.17C181.17 47.575 181.17 51.2986 184.931 51.2986C185.69 51.3564 186.442 51.1246 187.037 50.6498C187.633 50.1749 188.027 49.4921 188.141 48.7382H193.056C192.984 50.2468 192.36 51.6762 191.305 52.7542C189.963 54.1839 187.557 54.9117 184.86 54.9117C183.284 54.9117 180.321 54.6193 178.376 52.6113C176.69 50.8567 176.003 48.3873 176.003 45.424C176.003 42.4607 176.729 38.8606 179.828 36.6966C181.367 35.6806 183.173 35.1488 185.015 35.1695C187.609 35.1695 190.773 36.1898 192.446 39.6209C193.613 42.1553 193.548 44.8392 193.471 46.3793L193.49 46.3728ZM19.9708 24.9345C20.4195 24.8797 20.8351 24.6701 21.1462 24.3416C21.4574 24.0131 21.6448 23.5863 21.6761 23.1344V16.636C21.6761 15.4858 21.4038 14.6865 19.8476 14.6865H14.829V24.941H19.9773L19.9708 24.9345ZM21.7604 36.4887C21.7604 35.1045 21.3714 33.8243 19.7828 33.8243H14.9327V45.5215H20.0421C20.2868 45.5173 20.528 45.4623 20.7503 45.36C20.9727 45.2577 21.1716 45.1103 21.3342 44.9271C21.4969 44.7439 21.6199 44.5289 21.6955 44.2957C21.7711 44.0624 21.7976 43.816 21.7734 43.572V36.4237L21.7604 36.4887ZM0 0V59.9025H136.852V0H0.0389042H0ZM30.7213 33.9543V49.6675C30.7213 52.2019 28.2769 54.2164 26.5391 54.2164H5.70595V5.99805H25.6508C27.0187 6.01005 28.3265 6.56306 29.2895 7.53672C30.2525 8.51037 30.7927 9.82585 30.7927 11.1968V25.4089C30.7927 27.2024 28.3158 28.983 26.4484 29.3859V29.4964C28.413 29.6913 30.7019 31.2379 30.7278 33.9478L30.7213 33.9543ZM57.4485 50.2004C57.4485 52.3708 55.633 54.0149 52.9097 54.2164H37.5166C35.0916 54.2619 32.8092 52.2019 32.7833 50.0444V45.8334L32.8351 5.91357H41.9776L42.0425 43.1496C42.0425 44.7482 43.0799 45.567 45.3817 45.5865C47.502 45.5865 48.4681 44.6962 48.4811 43.1951L48.4422 41.9929V5.92657H57.4745L57.4485 50.2004ZM85.4985 54.1969H76.4662L69.1846 31.4524V54.1969H60.0421V5.95906H69.1846L76.4208 28.1187V5.95256H85.4985V54.2099V54.1969ZM108.841 14.6215H102.759L102.694 54.2619H93.6165V14.667H87.4048V5.92657H108.834V14.6345L108.841 14.6215ZM131.73 54.2099H110.754V5.97855H131.308V14.576H119.844V24.9735H129.395V33.6814L119.929 33.7139V45.541H131.775V54.2619L131.73 54.2099Z" fill="#E30613"></path></svg>