<svg xmlns="http://www.w3.org/2000/svg" width="28" height="34" viewBox="0 0 28 34" fill="none"><g clip-path="url(#clip0_168_48)"><mask id="path-1-outside-1_168_48" maskUnits="userSpaceOnUse" x="0" y="-0.000183105" width="28" height="34" fill="black"><rect fill="white" y="-0.000183105" width="28" height="34"></rect><path d="M26.6246 20.0531C26.6246 26.766 21.1827 32.208 14.4697 32.208C7.75675 32.208 2.31481 26.766 2.31481 20.0531C2.31481 13.3401 7.75675 7.89817 14.4697 7.89817C21.1827 7.89817 26.6246 13.3401 26.6246 20.0531Z"></path><path d="M12.241 1.0228C12.0784 1.08034 11.9308 1.21543 11.8533 1.38055C11.8057 1.47561 11.8032 1.55817 11.8032 3.06422C11.8032 4.81543 11.7957 4.72787 11.9708 4.92051C12.141 5.11064 12.216 5.13065 12.7989 5.14066L13.3043 5.15066V6.44156L13.1241 6.45907C10.5023 6.69924 8.03061 7.68743 6.01671 9.30355C5.88412 9.41112 5.76403 9.49868 5.75403 9.49868C5.74402 9.49868 5.66396 9.42863 5.5789 9.34107L5.4238 9.18597L5.65145 8.96081C5.93665 8.67561 5.97918 8.61057 5.97918 8.43795C5.97918 8.33538 5.96417 8.27533 5.91664 8.19278C5.82407 8.03517 4.40559 6.63169 4.29301 6.58416C4.17043 6.53412 4.03283 6.53663 3.91025 6.59417C3.78766 6.65171 1.91136 8.52551 1.87383 8.63058C1.83381 8.73065 1.84131 8.88576 1.88384 8.99333C1.93388 9.10841 3.33235 10.5219 3.49246 10.617C3.61254 10.6895 3.82018 10.702 3.92776 10.647C3.95778 10.632 4.09788 10.5069 4.23547 10.3718L4.48815 10.1241L4.63575 10.2742L4.78335 10.4218L4.5707 10.642C3.36487 11.9003 2.35417 13.579 1.72123 15.3828C1.13332 17.0439 0.890651 19.0203 1.04576 20.8441C1.37098 24.6167 3.27481 28.0541 6.31191 30.3431C8.3108 31.8517 10.6449 32.7398 13.2042 32.97C13.672 33.01 14.9379 33.01 15.4057 32.97C17.6923 32.7648 19.7462 32.0543 21.61 30.826C24.4745 28.9372 26.5009 26.0352 27.264 22.7329C27.7718 20.5388 27.7193 18.2773 27.1088 16.0833C26.7686 14.8524 26.1532 13.5115 25.4252 12.4032C24.5621 11.0898 23.3863 9.85893 22.1104 8.93579C20.6669 7.89007 19.0508 7.15456 17.3196 6.75178C16.7266 6.61168 15.9586 6.4916 15.4382 6.45657L15.1806 6.43906V5.15066L15.6884 5.14066C16.2688 5.13065 16.3439 5.11064 16.514 4.92051C16.6891 4.72787 16.6816 4.81543 16.6816 3.06422C16.6816 1.28798 16.6891 1.37554 16.4965 1.18541C16.2963 0.992779 16.4489 1.00529 14.2674 1.00029C12.949 0.997784 12.2911 1.00529 12.241 1.0228ZM15.2231 8.43545C17.6523 8.64309 19.8613 9.56623 21.6976 11.1473C23.5289 12.7234 24.8348 14.8974 25.3476 17.229C25.5503 18.1497 25.6003 18.635 25.6003 19.7058C25.6003 20.6564 25.5803 20.9291 25.4477 21.6821C24.9699 24.4315 23.4538 26.9333 21.2223 28.662C19.7913 29.7703 18.0451 30.5433 16.2813 30.8485C15.5033 30.9836 15.2806 31.0011 14.305 31.0011C13.3293 31.0011 13.1066 30.9836 12.3286 30.8485C9.53165 30.3632 6.96737 28.7846 5.24617 26.4855C4.03033 24.8643 3.30983 23.0481 3.05465 20.9566C2.98961 20.4363 2.99211 18.9728 3.05465 18.4549C3.27731 16.6612 3.81268 15.1376 4.73082 13.6766C6.08926 11.5201 8.18822 9.85393 10.5899 9.02335C12.0659 8.513 13.6995 8.30536 15.2231 8.43545Z"></path><path d="M14.1805 10.1997H14.4307V8.99884H14.1805V10.1997Z"></path><path d="M8.95157 10.4294C8.90404 10.4595 8.86151 10.487 8.85651 10.4895C8.8515 10.492 9.39938 11.4577 9.44191 11.5202C9.45442 11.5377 9.65206 11.4226 9.65206 11.3976C9.65206 11.3626 9.07666 10.3744 9.05665 10.3744C9.04664 10.3744 8.99911 10.3994 8.95157 10.4294Z"></path><path d="M19.2485 10.8894C19.0859 11.1721 18.9558 11.4048 18.9608 11.4098C19.0108 11.4473 19.1634 11.5274 19.1684 11.5224C19.1959 11.4898 19.7613 10.4941 19.7538 10.4891C19.7238 10.4666 19.5637 10.3741 19.5562 10.3741C19.5487 10.3741 19.4111 10.6067 19.2485 10.8894Z"></path><path d="M14.123 12.7142L13.9354 13.072L13.9079 14.1728C13.8929 14.7782 13.8679 15.6563 13.8554 16.1241C13.8103 17.6527 13.7828 18.7134 13.7653 19.3839L13.7478 20.0418L13.6127 20.1069C13.1774 20.322 12.8522 20.8524 12.8497 21.3627C12.8447 21.768 12.9747 22.1033 13.2399 22.386C13.5351 22.6987 13.8854 22.8513 14.3057 22.8513C14.726 22.8513 15.0762 22.6987 15.3714 22.386C15.7392 21.9957 15.8618 21.4378 15.6891 20.9349C15.6491 20.8199 15.5741 20.6598 15.5215 20.5822C15.3989 20.3996 15.1713 20.1919 14.9937 20.1044L14.8561 20.0368V19.8942C14.8561 19.8167 14.816 18.2456 14.7685 16.4068L14.6809 13.062L14.5058 12.7092C14.4082 12.5166 14.3257 12.359 14.3207 12.359C14.3132 12.359 14.2256 12.5191 14.123 12.7142ZM14.5258 20.9825C14.7034 21.065 14.811 21.3127 14.7585 21.5078C14.7034 21.708 14.5058 21.8656 14.3057 21.8656C14.1856 21.8656 14.0305 21.788 13.9479 21.693C13.8704 21.5979 13.8203 21.4353 13.8404 21.3327C13.9079 20.9975 14.2181 20.8374 14.5258 20.9825Z"></path><path d="M5.05137 14.3369C5.02135 14.382 4.99884 14.4295 4.99884 14.442C4.99884 14.467 5.97201 15.0349 6.00954 15.0324C6.02205 15.0324 6.05707 14.9874 6.0896 14.9348L6.14714 14.8373L5.63928 14.5446C5.35909 14.3845 5.12393 14.2519 5.11642 14.2519C5.10892 14.2519 5.07889 14.2894 5.05137 14.3369Z"></path><path d="M22.9866 14.5375C22.7189 14.6926 22.4987 14.8302 22.4937 14.8427C22.4887 14.8552 22.5112 14.9078 22.5438 14.9578L22.5988 15.0504L22.9365 14.8552C23.1217 14.7501 23.3543 14.6151 23.4544 14.5575L23.632 14.4524L23.5795 14.3524C23.5495 14.2973 23.5144 14.2523 23.4994 14.2548C23.4869 14.2548 23.2543 14.3824 22.9866 14.5375Z"></path><path d="M3.61982 19.5735C3.60982 19.611 3.61982 19.8061 3.63233 19.8061C3.63984 19.8061 3.90752 19.8061 4.22274 19.8061H4.79814V19.5685H4.21023C3.88751 19.5685 3.62232 19.571 3.61982 19.5735Z"></path><path d="M23.8125 19.8061H25.0158L25.0083 19.6936L25.0008 19.5785L23.8125 19.5685V19.8061Z"></path><path d="M5.51136 24.6264C5.23617 24.784 5.00601 24.9166 5.00351 24.9216C4.9885 24.9366 5.02353 25.0192 5.07106 25.0817L5.11609 25.1418L6.14681 24.5464L6.09427 24.4588C6.06425 24.4113 6.03423 24.3637 6.02672 24.3537C6.01922 24.3437 5.78656 24.4663 5.51136 24.6264Z"></path><path d="M22.5383 24.4363C22.5057 24.4913 22.4907 24.5464 22.5007 24.5589C22.5358 24.5914 23.4839 25.1343 23.5039 25.1343C23.5164 25.1343 23.549 25.0892 23.579 25.0342L23.6315 24.9341L23.3913 24.7915C23.2588 24.714 23.0261 24.5789 22.8785 24.4913C22.7284 24.4063 22.6033 24.3337 22.6008 24.3337C22.5983 24.3337 22.5683 24.3787 22.5383 24.4363Z"></path><path d="M9.14686 28.3766L8.85416 28.8894L8.95673 28.952C9.01177 28.987 9.06681 29.007 9.07681 28.9945C9.10683 28.962 9.65221 28.0063 9.65221 27.9863C9.65221 27.9713 9.46959 27.8587 9.44957 27.8612C9.44457 27.8637 9.30697 28.0939 9.14686 28.3766Z"></path><path d="M19.0594 27.9169C19.0119 27.947 18.9668 27.9745 18.9618 27.977C18.9568 27.982 19.5222 28.9777 19.5497 29.0102C19.5547 29.0152 19.7048 28.9351 19.7574 28.8976C19.7674 28.8876 19.177 27.8619 19.1595 27.8619C19.152 27.8619 19.1069 27.8869 19.0594 27.9169Z"></path><path d="M14.1805 30.3883H14.4307V29.1875H14.1805V30.3883Z"></path></mask><path d="M26.6246 20.0531C26.6246 26.766 21.1827 32.208 14.4697 32.208C7.75675 32.208 2.31481 26.766 2.31481 20.0531C2.31481 13.3401 7.75675 7.89817 14.4697 7.89817C21.1827 7.89817 26.6246 13.3401 26.6246 20.0531Z" fill="url(#paint0_linear_168_48)"></path><path d="M12.241 1.0228C12.0784 1.08034 11.9308 1.21543 11.8533 1.38055C11.8057 1.47561 11.8032 1.55817 11.8032 3.06422C11.8032 4.81543 11.7957 4.72787 11.9708 4.92051C12.141 5.11064 12.216 5.13065 12.7989 5.14066L13.3043 5.15066V6.44156L13.1241 6.45907C10.5023 6.69924 8.03061 7.68743 6.01671 9.30355C5.88412 9.41112 5.76403 9.49868 5.75403 9.49868C5.74402 9.49868 5.66396 9.42863 5.5789 9.34107L5.4238 9.18597L5.65145 8.96081C5.93665 8.67561 5.97918 8.61057 5.97918 8.43795C5.97918 8.33538 5.96417 8.27533 5.91664 8.19278C5.82407 8.03517 4.40559 6.63169 4.29301 6.58416C4.17043 6.53412 4.03283 6.53663 3.91025 6.59417C3.78766 6.65171 1.91136 8.52551 1.87383 8.63058C1.83381 8.73065 1.84131 8.88576 1.88384 8.99333C1.93388 9.10841 3.33235 10.5219 3.49246 10.617C3.61254 10.6895 3.82018 10.702 3.92776 10.647C3.95778 10.632 4.09788 10.5069 4.23547 10.3718L4.48815 10.1241L4.63575 10.2742L4.78335 10.4218L4.5707 10.642C3.36487 11.9003 2.35417 13.579 1.72123 15.3828C1.13332 17.0439 0.890651 19.0203 1.04576 20.8441C1.37098 24.6167 3.27481 28.0541 6.31191 30.3431C8.3108 31.8517 10.6449 32.7398 13.2042 32.97C13.672 33.01 14.9379 33.01 15.4057 32.97C17.6923 32.7648 19.7462 32.0543 21.61 30.826C24.4745 28.9372 26.5009 26.0352 27.264 22.7329C27.7718 20.5388 27.7193 18.2773 27.1088 16.0833C26.7686 14.8524 26.1532 13.5115 25.4252 12.4032C24.5621 11.0898 23.3863 9.85893 22.1104 8.93579C20.6669 7.89007 19.0508 7.15456 17.3196 6.75178C16.7266 6.61168 15.9586 6.4916 15.4382 6.45657L15.1806 6.43906V5.15066L15.6884 5.14066C16.2688 5.13065 16.3439 5.11064 16.514 4.92051C16.6891 4.72787 16.6816 4.81543 16.6816 3.06422C16.6816 1.28798 16.6891 1.37554 16.4965 1.18541C16.2963 0.992779 16.4489 1.00529 14.2674 1.00029C12.949 0.997784 12.2911 1.00529 12.241 1.0228ZM15.2231 8.43545C17.6523 8.64309 19.8613 9.56623 21.6976 11.1473C23.5289 12.7234 24.8348 14.8974 25.3476 17.229C25.5503 18.1497 25.6003 18.635 25.6003 19.7058C25.6003 20.6564 25.5803 20.9291 25.4477 21.6821C24.9699 24.4315 23.4538 26.9333 21.2223 28.662C19.7913 29.7703 18.0451 30.5433 16.2813 30.8485C15.5033 30.9836 15.2806 31.0011 14.305 31.0011C13.3293 31.0011 13.1066 30.9836 12.3286 30.8485C9.53165 30.3632 6.96737 28.7846 5.24617 26.4855C4.03033 24.8643 3.30983 23.0481 3.05465 20.9566C2.98961 20.4363 2.99211 18.9728 3.05465 18.4549C3.27731 16.6612 3.81268 15.1376 4.73082 13.6766C6.08926 11.5201 8.18822 9.85393 10.5899 9.02335C12.0659 8.513 13.6995 8.30536 15.2231 8.43545Z" fill="#E0222E"></path><path d="M14.1805 10.1997H14.4307V8.99884H14.1805V10.1997Z" fill="#BC1515"></path><path d="M8.95157 10.4294C8.90404 10.4595 8.86151 10.487 8.85651 10.4895C8.8515 10.492 9.39938 11.4577 9.44191 11.5202C9.45442 11.5377 9.65206 11.4226 9.65206 11.3976C9.65206 11.3626 9.07666 10.3744 9.05665 10.3744C9.04664 10.3744 8.99911 10.3994 8.95157 10.4294Z" fill="#BC1515"></path><path d="M19.2485 10.8894C19.0859 11.1721 18.9558 11.4048 18.9608 11.4098C19.0108 11.4473 19.1634 11.5274 19.1684 11.5224C19.1959 11.4898 19.7613 10.4941 19.7538 10.4891C19.7238 10.4666 19.5637 10.3741 19.5562 10.3741C19.5487 10.3741 19.4111 10.6067 19.2485 10.8894Z" fill="#BC1515"></path><path d="M14.123 12.7142L13.9354 13.072L13.9079 14.1728C13.8929 14.7782 13.8679 15.6563 13.8554 16.1241C13.8103 17.6527 13.7828 18.7134 13.7653 19.3839L13.7478 20.0418L13.6127 20.1069C13.1774 20.322 12.8522 20.8524 12.8497 21.3627C12.8447 21.768 12.9747 22.1033 13.2399 22.386C13.5351 22.6987 13.8854 22.8513 14.3057 22.8513C14.726 22.8513 15.0762 22.6987 15.3714 22.386C15.7392 21.9957 15.8618 21.4378 15.6891 20.9349C15.6491 20.8199 15.5741 20.6598 15.5215 20.5822C15.3989 20.3996 15.1713 20.1919 14.9937 20.1044L14.8561 20.0368V19.8942C14.8561 19.8167 14.816 18.2456 14.7685 16.4068L14.6809 13.062L14.5058 12.7092C14.4082 12.5166 14.3257 12.359 14.3207 12.359C14.3132 12.359 14.2256 12.5191 14.123 12.7142ZM14.5258 20.9825C14.7034 21.065 14.811 21.3127 14.7585 21.5078C14.7034 21.708 14.5058 21.8656 14.3057 21.8656C14.1856 21.8656 14.0305 21.788 13.9479 21.693C13.8704 21.5979 13.8203 21.4353 13.8404 21.3327C13.9079 20.9975 14.2181 20.8374 14.5258 20.9825Z" fill="#BC1515"></path><path d="M5.05137 14.3369C5.02135 14.382 4.99884 14.4295 4.99884 14.442C4.99884 14.467 5.97201 15.0349 6.00954 15.0324C6.02205 15.0324 6.05707 14.9874 6.0896 14.9348L6.14714 14.8373L5.63928 14.5446C5.35909 14.3845 5.12393 14.2519 5.11642 14.2519C5.10892 14.2519 5.07889 14.2894 5.05137 14.3369Z" fill="#BC1515"></path><path d="M22.9866 14.5375C22.7189 14.6926 22.4987 14.8302 22.4937 14.8427C22.4887 14.8552 22.5112 14.9078 22.5438 14.9578L22.5988 15.0504L22.9365 14.8552C23.1217 14.7501 23.3543 14.6151 23.4544 14.5575L23.632 14.4524L23.5795 14.3524C23.5495 14.2973 23.5144 14.2523 23.4994 14.2548C23.4869 14.2548 23.2543 14.3824 22.9866 14.5375Z" fill="#BC1515"></path><path d="M3.61982 19.5735C3.60982 19.611 3.61982 19.8061 3.63233 19.8061C3.63984 19.8061 3.90752 19.8061 4.22274 19.8061H4.79814V19.5685H4.21023C3.88751 19.5685 3.62232 19.571 3.61982 19.5735Z" fill="#BC1515"></path><path d="M23.8125 19.8061H25.0158L25.0083 19.6936L25.0008 19.5785L23.8125 19.5685V19.8061Z" fill="#BC1515"></path><path d="M5.51136 24.6264C5.23617 24.784 5.00601 24.9166 5.00351 24.9216C4.9885 24.9366 5.02353 25.0192 5.07106 25.0817L5.11609 25.1418L6.14681 24.5464L6.09427 24.4588C6.06425 24.4113 6.03423 24.3637 6.02672 24.3537C6.01922 24.3437 5.78656 24.4663 5.51136 24.6264Z" fill="#BC1515"></path><path d="M22.5383 24.4363C22.5057 24.4913 22.4907 24.5464 22.5007 24.5589C22.5358 24.5914 23.4839 25.1343 23.5039 25.1343C23.5164 25.1343 23.549 25.0892 23.579 25.0342L23.6315 24.9341L23.3913 24.7915C23.2588 24.714 23.0261 24.5789 22.8785 24.4913C22.7284 24.4063 22.6033 24.3337 22.6008 24.3337C22.5983 24.3337 22.5683 24.3787 22.5383 24.4363Z" fill="#BC1515"></path><path d="M9.14686 28.3766L8.85416 28.8894L8.95673 28.952C9.01177 28.987 9.06681 29.007 9.07681 28.9945C9.10683 28.962 9.65221 28.0063 9.65221 27.9863C9.65221 27.9713 9.46959 27.8587 9.44957 27.8612C9.44457 27.8637 9.30697 28.0939 9.14686 28.3766Z" fill="#BC1515"></path><path d="M19.0594 27.9169C19.0119 27.947 18.9668 27.9745 18.9618 27.977C18.9568 27.982 19.5222 28.9777 19.5497 29.0102C19.5547 29.0152 19.7048 28.9351 19.7574 28.8976C19.7674 28.8876 19.177 27.8619 19.1595 27.8619C19.152 27.8619 19.1069 27.8869 19.0594 27.9169Z" fill="#BC1515"></path><path d="M14.1805 30.3883H14.4307V29.1875H14.1805V30.3883Z" fill="#BC1515"></path><path d="M26.6246 20.0531C26.6246 26.766 21.1827 32.208 14.4697 32.208C7.75675 32.208 2.31481 26.766 2.31481 20.0531C2.31481 13.3401 7.75675 7.89817 14.4697 7.89817C21.1827 7.89817 26.6246 13.3401 26.6246 20.0531Z" stroke="#BC1515" stroke-width="0.426317" mask="url(#path-1-outside-1_168_48)"></path><path d="M12.241 1.0228C12.0784 1.08034 11.9308 1.21543 11.8533 1.38055C11.8057 1.47561 11.8032 1.55817 11.8032 3.06422C11.8032 4.81543 11.7957 4.72787 11.9708 4.92051C12.141 5.11064 12.216 5.13065 12.7989 5.14066L13.3043 5.15066V6.44156L13.1241 6.45907C10.5023 6.69924 8.03061 7.68743 6.01671 9.30355C5.88412 9.41112 5.76403 9.49868 5.75403 9.49868C5.74402 9.49868 5.66396 9.42863 5.5789 9.34107L5.4238 9.18597L5.65145 8.96081C5.93665 8.67561 5.97918 8.61057 5.97918 8.43795C5.97918 8.33538 5.96417 8.27533 5.91664 8.19278C5.82407 8.03517 4.40559 6.63169 4.29301 6.58416C4.17043 6.53412 4.03283 6.53663 3.91025 6.59417C3.78766 6.65171 1.91136 8.52551 1.87383 8.63058C1.83381 8.73065 1.84131 8.88576 1.88384 8.99333C1.93388 9.10841 3.33235 10.5219 3.49246 10.617C3.61254 10.6895 3.82018 10.702 3.92776 10.647C3.95778 10.632 4.09788 10.5069 4.23547 10.3718L4.48815 10.1241L4.63575 10.2742L4.78335 10.4218L4.5707 10.642C3.36487 11.9003 2.35417 13.579 1.72123 15.3828C1.13332 17.0439 0.890651 19.0203 1.04576 20.8441C1.37098 24.6167 3.27481 28.0541 6.31191 30.3431C8.3108 31.8517 10.6449 32.7398 13.2042 32.97C13.672 33.01 14.9379 33.01 15.4057 32.97C17.6923 32.7648 19.7462 32.0543 21.61 30.826C24.4745 28.9372 26.5009 26.0352 27.264 22.7329C27.7718 20.5388 27.7193 18.2773 27.1088 16.0833C26.7686 14.8524 26.1532 13.5115 25.4252 12.4032C24.5621 11.0898 23.3863 9.85893 22.1104 8.93579C20.6669 7.89007 19.0508 7.15456 17.3196 6.75178C16.7266 6.61168 15.9586 6.4916 15.4382 6.45657L15.1806 6.43906V5.15066L15.6884 5.14066C16.2688 5.13065 16.3439 5.11064 16.514 4.92051C16.6891 4.72787 16.6816 4.81543 16.6816 3.06422C16.6816 1.28798 16.6891 1.37554 16.4965 1.18541C16.2963 0.992779 16.4489 1.00529 14.2674 1.00029C12.949 0.997784 12.2911 1.00529 12.241 1.0228ZM15.2231 8.43545C17.6523 8.64309 19.8613 9.56623 21.6976 11.1473C23.5289 12.7234 24.8348 14.8974 25.3476 17.229C25.5503 18.1497 25.6003 18.635 25.6003 19.7058C25.6003 20.6564 25.5803 20.9291 25.4477 21.6821C24.9699 24.4315 23.4538 26.9333 21.2223 28.662C19.7913 29.7703 18.0451 30.5433 16.2813 30.8485C15.5033 30.9836 15.2806 31.0011 14.305 31.0011C13.3293 31.0011 13.1066 30.9836 12.3286 30.8485C9.53165 30.3632 6.96737 28.7846 5.24617 26.4855C4.03033 24.8643 3.30983 23.0481 3.05465 20.9566C2.98961 20.4363 2.99211 18.9728 3.05465 18.4549C3.27731 16.6612 3.81268 15.1376 4.73082 13.6766C6.08926 11.5201 8.18822 9.85393 10.5899 9.02335C12.0659 8.513 13.6995 8.30536 15.2231 8.43545Z" stroke="#BC1515" stroke-width="0.426317" mask="url(#path-1-outside-1_168_48)"></path><path d="M14.1805 10.1997H14.4307V8.99884H14.1805V10.1997Z" stroke="#BC1515" stroke-width="0.426317" mask="url(#path-1-outside-1_168_48)"></path><path d="M8.95157 10.4294C8.90404 10.4595 8.86151 10.487 8.85651 10.4895C8.8515 10.492 9.39938 11.4577 9.44191 11.5202C9.45442 11.5377 9.65206 11.4226 9.65206 11.3976C9.65206 11.3626 9.07666 10.3744 9.05665 10.3744C9.04664 10.3744 8.99911 10.3994 8.95157 10.4294Z" stroke="#BC1515" stroke-width="0.426317" mask="url(#path-1-outside-1_168_48)"></path><path d="M19.2485 10.8894C19.0859 11.1721 18.9558 11.4048 18.9608 11.4098C19.0108 11.4473 19.1634 11.5274 19.1684 11.5224C19.1959 11.4898 19.7613 10.4941 19.7538 10.4891C19.7238 10.4666 19.5637 10.3741 19.5562 10.3741C19.5487 10.3741 19.4111 10.6067 19.2485 10.8894Z" stroke="#BC1515" stroke-width="0.426317" mask="url(#path-1-outside-1_168_48)"></path><path d="M14.123 12.7142L13.9354 13.072L13.9079 14.1728C13.8929 14.7782 13.8679 15.6563 13.8554 16.1241C13.8103 17.6527 13.7828 18.7134 13.7653 19.3839L13.7478 20.0418L13.6127 20.1069C13.1774 20.322 12.8522 20.8524 12.8497 21.3627C12.8447 21.768 12.9747 22.1033 13.2399 22.386C13.5351 22.6987 13.8854 22.8513 14.3057 22.8513C14.726 22.8513 15.0762 22.6987 15.3714 22.386C15.7392 21.9957 15.8618 21.4378 15.6891 20.9349C15.6491 20.8199 15.5741 20.6598 15.5215 20.5822C15.3989 20.3996 15.1713 20.1919 14.9937 20.1044L14.8561 20.0368V19.8942C14.8561 19.8167 14.816 18.2456 14.7685 16.4068L14.6809 13.062L14.5058 12.7092C14.4082 12.5166 14.3257 12.359 14.3207 12.359C14.3132 12.359 14.2256 12.5191 14.123 12.7142ZM14.5258 20.9825C14.7034 21.065 14.811 21.3127 14.7585 21.5078C14.7034 21.708 14.5058 21.8656 14.3057 21.8656C14.1856 21.8656 14.0305 21.788 13.9479 21.693C13.8704 21.5979 13.8203 21.4353 13.8404 21.3327C13.9079 20.9975 14.2181 20.8374 14.5258 20.9825Z" stroke="#BC1515" stroke-width="0.426317" mask="url(#path-1-outside-1_168_48)"></path><path d="M5.05137 14.3369C5.02135 14.382 4.99884 14.4295 4.99884 14.442C4.99884 14.467 5.97201 15.0349 6.00954 15.0324C6.02205 15.0324 6.05707 14.9874 6.0896 14.9348L6.14714 14.8373L5.63928 14.5446C5.35909 14.3845 5.12393 14.2519 5.11642 14.2519C5.10892 14.2519 5.07889 14.2894 5.05137 14.3369Z" stroke="#BC1515" stroke-width="0.426317" mask="url(#path-1-outside-1_168_48)"></path><path d="M22.9866 14.5375C22.7189 14.6926 22.4987 14.8302 22.4937 14.8427C22.4887 14.8552 22.5112 14.9078 22.5438 14.9578L22.5988 15.0504L22.9365 14.8552C23.1217 14.7501 23.3543 14.6151 23.4544 14.5575L23.632 14.4524L23.5795 14.3524C23.5495 14.2973 23.5144 14.2523 23.4994 14.2548C23.4869 14.2548 23.2543 14.3824 22.9866 14.5375Z" stroke="#BC1515" stroke-width="0.426317" mask="url(#path-1-outside-1_168_48)"></path><path d="M3.61982 19.5735C3.60982 19.611 3.61982 19.8061 3.63233 19.8061C3.63984 19.8061 3.90752 19.8061 4.22274 19.8061H4.79814V19.5685H4.21023C3.88751 19.5685 3.62232 19.571 3.61982 19.5735Z" stroke="#BC1515" stroke-width="0.426317" mask="url(#path-1-outside-1_168_48)"></path><path d="M23.8125 19.8061H25.0158L25.0083 19.6936L25.0008 19.5785L23.8125 19.5685V19.8061Z" stroke="#BC1515" stroke-width="0.426317" mask="url(#path-1-outside-1_168_48)"></path><path d="M5.51136 24.6264C5.23617 24.784 5.00601 24.9166 5.00351 24.9216C4.9885 24.9366 5.02353 25.0192 5.07106 25.0817L5.11609 25.1418L6.14681 24.5464L6.09427 24.4588C6.06425 24.4113 6.03423 24.3637 6.02672 24.3537C6.01922 24.3437 5.78656 24.4663 5.51136 24.6264Z" stroke="#BC1515" stroke-width="0.426317" mask="url(#path-1-outside-1_168_48)"></path><path d="M22.5383 24.4363C22.5057 24.4913 22.4907 24.5464 22.5007 24.5589C22.5358 24.5914 23.4839 25.1343 23.5039 25.1343C23.5164 25.1343 23.549 25.0892 23.579 25.0342L23.6315 24.9341L23.3913 24.7915C23.2588 24.714 23.0261 24.5789 22.8785 24.4913C22.7284 24.4063 22.6033 24.3337 22.6008 24.3337C22.5983 24.3337 22.5683 24.3787 22.5383 24.4363Z" stroke="#BC1515" stroke-width="0.426317" mask="url(#path-1-outside-1_168_48)"></path><path d="M9.14686 28.3766L8.85416 28.8894L8.95673 28.952C9.01177 28.987 9.06681 29.007 9.07681 28.9945C9.10683 28.962 9.65221 28.0063 9.65221 27.9863C9.65221 27.9713 9.46959 27.8587 9.44957 27.8612C9.44457 27.8637 9.30697 28.0939 9.14686 28.3766Z" stroke="#BC1515" stroke-width="0.426317" mask="url(#path-1-outside-1_168_48)"></path><path d="M19.0594 27.9169C19.0119 27.947 18.9668 27.9745 18.9618 27.977C18.9568 27.982 19.5222 28.9777 19.5497 29.0102C19.5547 29.0152 19.7048 28.9351 19.7574 28.8976C19.7674 28.8876 19.177 27.8619 19.1595 27.8619C19.152 27.8619 19.1069 27.8869 19.0594 27.9169Z" stroke="#BC1515" stroke-width="0.426317" mask="url(#path-1-outside-1_168_48)"></path><path d="M14.1805 30.3883H14.4307V29.1875H14.1805V30.3883Z" stroke="#BC1515" stroke-width="0.426317" mask="url(#path-1-outside-1_168_48)"></path></g><defs><linearGradient id="paint0_linear_168_48" x1="5.55301" y1="4.66687" x2="25.753" y2="27.7028" gradientUnits="userSpaceOnUse"><stop stop-color="#E4E0D8"></stop><stop offset="0.214803" stop-color="white"></stop><stop offset="0.361265" stop-color="white"></stop><stop offset="1" stop-color="#DED7D0"></stop></linearGradient><clipPath id="clip0_168_48"><rect width="28" height="34" fill="white"></rect></clipPath></defs></svg>